<svg width="104" height="104" viewBox="0 0 104 104" fill="none" xmlns="http://www.w3.org/2000/svg">
<circle cx="52" cy="52" r="52" fill="#7B7B7B"/>
<path d="M67.067 55.8568L73.632 92.8028C73.7055 93.2378 73.6445 93.6849 73.457 94.0843C73.2696 94.4838 72.9647 94.8164 72.583 95.0379C72.2014 95.2593 71.7613 95.359 71.3215 95.3235C70.8817 95.288 70.4632 95.1191 70.122 94.8394L54.6087 83.1958C53.8598 82.6363 52.95 82.334 52.0152 82.334C51.0803 82.334 50.1706 82.6363 49.4217 83.1958L33.8823 94.8351C33.5414 95.1143 33.1234 95.2829 32.6841 95.3184C32.2449 95.354 31.8052 95.2547 31.4239 95.0339C31.0425 94.813 30.7375 94.4812 30.5496 94.0825C30.3618 93.6839 30.2999 93.2375 30.3723 92.8028L36.933 55.8568M78 34.6668C78 49.0262 66.3594 60.6668 52 60.6668C37.6406 60.6668 26 49.0262 26 34.6668C26 20.3073 37.6406 8.66675 52 8.66675C66.3594 8.66675 78 20.3073 78 34.6668Z" stroke="#E9D9AD" stroke-width="4" stroke-linecap="round" stroke-linejoin="round"/>
</svg>
