<svg width="1920" height="1080" viewBox="0 0 1920 1080" fill="none" xmlns="http://www.w3.org/2000/svg">
<g opacity="0.16" clip-path="url(#clip0_73_399)">
<path d="M305.099 804.735L301.192 797.493L308.457 793.712C309.767 793.03 310.251 791.775 309.557 790.488L303.276 778.848C302.582 777.561 300.975 776.733 299.665 777.415L292.4 781.196L288.771 774.47C288.076 773.183 286.469 772.355 285.159 773.037L273.307 779.205C271.997 779.887 271.484 781.819 272.178 783.105L275.807 789.832L268.85 793.453C267.54 794.134 267.027 796.066 267.721 797.352L274.001 808.993C274.695 810.28 276.332 810.431 277.642 809.749L284.599 806.128L288.507 813.37C289.201 814.657 290.838 814.809 292.148 814.127L304 807.958C305.31 807.277 305.793 806.022 305.099 804.735ZM291.852 808.317L288.223 801.591C287.529 800.304 285.922 799.476 284.612 800.158L277.346 803.939L273.578 796.955L280.843 793.174C282.154 792.492 282.637 791.237 281.943 789.95L278.035 782.708L285.147 779.007L289.054 786.249C289.748 787.536 291.385 787.687 292.695 787.005L299.652 783.385L303.421 790.369L296.463 793.99C295.153 794.672 294.64 796.603 295.334 797.89L298.963 804.616L291.852 808.317Z" fill="#F7CC57"/>
<path d="M221.893 869.695C232.78 872.714 255.929 877.872 268.555 870.961C273.021 868.517 275.792 864.735 276.899 859.911C279.339 849.256 275.519 841.418 265.833 836.768L274.583 832.214C275.893 831.532 276.376 830.277 275.682 828.991L253.073 787.085C252.379 785.798 250.772 784.97 249.462 785.652L240.455 790.34C241.396 786.122 241.038 782.04 239.525 778.604C237.511 773.969 233.437 770.513 227.412 768.186C222.725 766.374 218.052 766.632 213.486 768.889C200.548 775.282 191.789 796.889 188.233 807.41C185.919 804.303 181.502 803.131 177.93 804.99L173.18 807.462C169.261 809.502 167.745 814.623 169.816 818.463L202.496 879.034C204.567 882.874 209.455 884.001 213.374 881.961L218.124 879.489C221.795 877.579 223.414 873.39 221.893 869.695ZM216.039 773.562C219.228 771.99 222.234 771.899 225.483 773.152C230.13 774.95 233.241 777.535 234.672 780.824C236.721 785.479 235.29 791.038 233.728 794.879C233.312 795.905 233.517 796.955 234.359 797.687C235.196 798.425 236.344 798.443 237.337 797.926L249.449 791.622L269.546 828.872L257.816 834.977C256.828 835.491 256.339 836.68 256.48 837.771C256.622 838.853 257.471 839.81 258.562 840.063C269.561 842.608 274.007 848.958 271.736 858.882C270.967 862.226 269.211 864.633 266.095 866.342C253.052 873.483 224.572 865.089 219.022 863.243L217.016 859.523C216.851 859.219 216.103 859.238 215.959 858.972L194.313 818.851C194.16 818.567 194.585 817.947 194.407 817.618L192.226 813.575C193.787 808.028 202.698 780.153 216.039 773.562ZM207.236 876.567L174.557 815.995C173.87 814.722 174.387 812.798 175.692 812.118L180.443 809.646C181.748 808.967 183.352 809.787 184.039 811.061L189.074 820.393L211.683 862.299L216.718 871.632C217.405 872.905 216.918 874.153 215.612 874.833L210.862 877.305C209.556 877.984 207.923 877.84 207.236 876.567Z" fill="#F7CC57"/>
</g>
<g opacity="0.16" clip-path="url(#clip1_73_399)">
<path d="M1725.27 420.531C1725.62 417.147 1725.13 410.904 1717.84 407.422C1718.06 406.208 1717.91 404.846 1717.03 403.673C1714.99 400.893 1711.77 400.991 1710.22 401.708L1708.41 402.545C1701.44 396.809 1693.55 386.908 1688.52 377.574C1688.49 377.487 1688.46 377.404 1688.42 377.32C1688.37 377.22 1688.31 377.123 1688.25 377.036L1682.09 364.542C1684.27 363.381 1685.15 360.668 1684.05 358.367C1683.43 357.083 1682.33 356.179 1681.07 355.789C1682.39 349.404 1679.94 341.986 1676.27 338.826C1671.65 334.858 1667.73 332.637 1661.8 329.275C1660.26 328.396 1658.57 327.44 1656.69 326.352C1657.27 324.678 1657.14 322.775 1656.27 320.962C1655.43 319.213 1654.05 318.02 1652.42 317.471C1650.83 316.886 1649.01 316.904 1647.35 317.671C1646.5 318.063 1645.78 318.613 1645.21 319.263C1644.24 320.254 1643.72 321.501 1643.64 322.873C1643.52 323.991 1643.68 325.15 1644.2 326.24C1644.36 326.558 1644.55 326.845 1644.74 327.126C1645.73 328.87 1646.92 329.811 1648.07 330.292C1647.94 331.089 1647.8 331.935 1647.66 332.782C1647.28 335.043 1646.91 337.312 1646.7 338.699C1646.62 339.194 1646.76 339.689 1647.05 340.083C1646.72 340.38 1646.5 340.79 1646.44 341.243C1646.3 342.387 1646.11 343.528 1645.93 344.672C1645.48 347.38 1645.03 350.178 1645.12 353.216C1645.27 358.4 1650 364.642 1655.61 367.559C1655.12 368.756 1655.12 370.162 1655.73 371.446C1656.82 373.716 1659.45 374.781 1661.73 373.935L1667.76 386.772C1671.32 395.119 1675.04 407.606 1674.99 417.987L1672.67 419.058C1671.42 419.638 1669.12 421.966 1670.04 425.431C1670.39 426.849 1671.35 427.878 1672.47 428.509C1670.78 435.981 1674.81 440.441 1677.37 442.439C1677.12 443.229 1676.93 444.161 1676.98 445.062C1677.09 446.821 1678.22 449.26 1678.45 449.732C1678.66 450.179 1679.05 450.527 1679.52 450.696C1680 450.865 1680.52 450.841 1680.98 450.63L1729.22 428.339C1729.7 428.12 1730.06 427.718 1730.22 427.235C1730.39 426.747 1730.33 426.214 1730.09 425.764C1729.94 425.491 1728.6 423.068 1727.42 421.917C1726.83 421.341 1726.05 420.882 1725.27 420.531ZM1671.25 385.27L1664.39 370.674C1664.18 370.222 1663.79 369.871 1663.32 369.701C1662.84 369.528 1662.31 369.551 1661.85 369.764L1660.45 370.413C1660 370.622 1659.43 370.371 1659.18 369.856C1658.93 369.34 1659.09 368.733 1659.53 368.531C1660.24 368.204 1660.67 367.487 1660.62 366.723C1660.57 365.957 1660.05 365.297 1659.3 365.06C1653.85 363.326 1649.04 357.042 1648.92 353.114C1648.84 350.425 1649.25 347.919 1649.69 345.266C1649.7 345.206 1649.71 345.147 1649.72 345.087L1653.63 348.371C1654.54 349.411 1656.17 350.127 1657.92 349.321L1657.92 349.319C1659.21 348.679 1659.48 347.689 1659.52 347.157C1659.64 345.772 1658.57 344.823 1658.14 344.497L1650.62 338.226C1650.83 336.887 1651.12 335.133 1651.41 333.385C1651.63 332.074 1651.84 330.773 1652.03 329.641C1652.33 329.551 1652.63 329.467 1652.93 329.331C1653.18 329.216 1653.4 329.061 1653.63 328.917C1655.97 330.288 1658.04 331.461 1659.9 332.514C1665.63 335.766 1669.42 337.913 1673.76 341.639C1676.83 344.287 1678.82 351.898 1676.75 357.001C1676.46 357.715 1676.65 358.53 1677.22 359.056C1677.78 359.58 1678.62 359.711 1679.33 359.383C1679.77 359.179 1680.36 359.443 1680.6 359.959C1680.85 360.475 1680.69 361.064 1680.23 361.272L1678.73 361.967C1678.27 362.18 1677.92 362.565 1677.75 363.037C1677.58 363.509 1677.6 364.025 1677.83 364.475L1684.88 378.781C1684.91 378.856 1684.94 378.928 1684.98 378.996C1689.81 388.068 1697.32 397.74 1704.27 403.965L1678.76 415.753C1678.33 405.316 1674.72 393.421 1671.25 385.27ZM1722.56 423.496C1723.53 423.81 1724.4 424.242 1724.74 424.57C1725 424.83 1725.36 425.307 1725.71 425.833L1681.18 446.406C1680.97 445.802 1680.81 445.219 1680.78 444.842C1680.75 444.311 1680.99 443.404 1681.4 442.534C1681.8 441.68 1681.49 440.669 1680.68 440.17C1678.65 438.921 1674.19 435.231 1676.57 427.928C1676.74 427.407 1676.67 426.838 1676.37 426.375C1676.08 425.909 1675.59 425.596 1675.04 425.512C1674.75 425.468 1673.89 425.199 1673.73 424.522C1673.34 423.066 1674.32 422.427 1674.29 422.441L1711.81 405.106C1711.82 405.1 1713.06 404.661 1713.95 405.873C1714.29 406.332 1714.06 407.123 1713.82 407.546C1713.55 408.021 1713.5 408.592 1713.69 409.103C1713.88 409.614 1714.29 410.021 1714.81 410.212C1721.98 412.844 1721.95 418.308 1721.29 421.331C1721.09 422.264 1721.64 423.198 1722.56 423.496ZM1672.65 352.841C1673.45 350.992 1673.5 349.268 1672.79 347.569C1670.98 343.226 1664.87 340.717 1664.8 340.692C1664.16 340.429 1663.85 339.703 1664.11 339.066C1664.38 338.43 1665.12 338.124 1665.77 338.384C1666.06 338.503 1672.91 341.302 1675.14 346.615C1676.11 348.932 1676.06 351.356 1674.99 353.818C1674.86 354.111 1674.63 354.33 1674.36 354.456C1674.05 354.602 1673.67 354.621 1673.32 354.476C1672.68 354.206 1672.38 353.474 1672.65 352.841Z" fill="#F7CC57"/>
</g>
<g opacity="0.16" clip-path="url(#clip2_73_399)">
<path d="M793.351 244.589C788.705 242.415 783.222 243.621 779.94 247.319L727.065 227.03L727.229 226.73C728.672 224.09 727.659 220.79 724.972 219.374C722.95 218.308 720.548 218.609 718.868 219.946C718.383 219.245 717.746 218.632 716.934 218.204C715.522 217.46 713.93 217.397 712.521 217.872C710.573 212.738 706.862 208.53 701.883 205.906C690.722 200.018 676.768 204.151 670.777 215.115C664.786 226.079 668.993 239.785 680.157 245.67C685.134 248.294 690.757 249.006 696.191 247.761C696.565 249.176 697.499 250.446 698.911 251.191C699.723 251.619 700.594 251.801 701.458 251.811C701.252 253.925 702.325 256.057 704.347 257.123C707.033 258.54 710.393 257.545 711.836 254.904L712 254.604L758.442 286.667C757.12 291.395 759.125 296.549 763.538 299.15C762.577 301.92 763.751 305.051 766.46 306.479L772.455 309.639C773.289 310.079 774.325 309.77 774.771 308.954L807.878 248.364C808.325 247.547 808.013 246.529 807.18 246.09L801.185 242.929C798.476 241.501 795.17 242.271 793.351 244.589ZM681.774 242.71C672.273 237.702 668.692 226.035 673.791 216.704C678.89 207.373 690.768 203.855 700.269 208.863C704.836 211.271 708.146 215.248 709.674 220.088C709.6 220.202 709.512 220.3 709.446 220.42L696.653 243.833C696.587 243.953 696.553 244.08 696.498 244.202C691.546 245.627 686.34 245.117 681.774 242.71ZM715.317 221.162C716.345 221.704 716.73 222.963 716.18 223.971L703.387 247.383C702.838 248.39 701.555 248.771 700.527 248.23C699.501 247.689 699.116 246.43 699.666 245.422L712.459 222.01C713.01 221.002 714.293 220.622 715.317 221.162ZM708.821 253.315C708.271 254.321 706.99 254.702 705.964 254.161C704.936 253.619 704.551 252.36 705.102 251.352L706.403 248.971L719.196 225.559L720.497 223.178C721.048 222.17 722.33 221.79 723.356 222.331C724.383 222.872 724.768 224.131 724.217 225.139L708.821 253.315ZM713.629 251.621L725.438 230.009L778.037 250.191L759.828 283.516L713.629 251.621ZM762.391 285.932L781.504 250.954C783.464 247.367 787.89 245.938 791.628 247.533L765.084 296.11C761.666 293.932 760.431 289.52 762.391 285.932ZM804.057 248.254L772.566 305.885L768.077 303.519C766.724 302.805 766.214 301.143 766.94 299.814L795.796 247.005C796.524 245.677 798.215 245.175 799.568 245.888L804.057 248.254Z" fill="#F7CC57"/>
</g>
<g opacity="0.16" clip-path="url(#clip3_73_399)">
<path d="M697.653 911.721C696.191 911.528 694.845 912.536 694.648 913.972C694.451 915.407 695.478 916.73 696.94 916.923C698.402 917.116 699.748 916.108 699.945 914.672C700.141 913.236 699.115 911.914 697.653 911.721Z" fill="#F7CC57"/>
<path d="M729.431 915.924L708.246 913.122C706.783 912.928 705.438 913.936 705.241 915.373C705.044 916.809 706.07 918.13 707.533 918.324L728.718 921.126C730.181 921.319 731.526 920.311 731.723 918.875C731.92 917.438 730.894 916.117 729.431 915.924Z" fill="#F7CC57"/>
<path d="M750.256 931.04C750.477 930.793 750.687 930.534 750.879 930.256C752.598 927.775 752.739 924.605 751.248 921.987L744.389 909.933C745.881 908.675 746.839 906.948 747.104 905.02C747.693 900.717 744.609 896.746 740.229 896.166L739.991 896.135L742.072 844.764L752.802 842.76C756.198 842.127 758.79 839.44 759.252 836.074L761.59 819.017C761.787 817.581 760.761 816.259 759.299 816.066L748.706 814.665C747.243 814.472 745.898 815.479 745.701 816.916L744.631 824.719L739.335 824.018L740.405 816.215C740.602 814.779 739.575 813.457 738.113 813.264L716.927 810.462C715.465 810.269 714.119 811.276 713.923 812.713L712.853 820.516L707.556 819.816L708.626 812.013C708.823 810.576 707.797 809.255 706.334 809.061L695.742 807.66C694.279 807.467 692.934 808.475 692.737 809.911L690.398 826.969C689.937 830.335 691.713 833.599 694.817 835.091L704.626 839.812L692.799 889.894L692.561 889.862C690.44 889.582 688.334 890.13 686.63 891.405C684.927 892.681 683.832 894.531 683.547 896.615C683.274 898.599 683.785 900.512 684.843 902.056L674.981 911.9C672.837 914.038 672.12 917.131 673.109 919.971C673.22 920.288 673.352 920.593 673.499 920.889C669.226 922.614 665.973 926.466 665.313 931.277L664.6 936.479C664.403 937.916 665.429 939.237 666.892 939.431L751.634 950.638C753.097 950.831 754.442 949.824 754.639 948.387L755.352 943.185C756.012 938.374 753.913 933.814 750.256 931.04ZM697.167 830.377C696.133 829.88 695.541 828.792 695.695 827.669L697.677 813.213L702.973 813.913L701.903 821.716C701.706 823.153 702.732 824.474 704.195 824.667L714.788 826.068C716.25 826.262 717.596 825.254 717.793 823.817L718.862 816.014L734.752 818.116L733.682 825.919C733.485 827.355 734.511 828.677 735.973 828.87L746.566 830.271C748.029 830.464 749.374 829.457 749.571 828.02L750.641 820.217L755.937 820.918L753.955 835.374C753.802 836.496 752.938 837.392 751.805 837.603L739.414 839.918L708.495 835.829L697.167 830.377ZM734.671 895.431L698.119 890.597L709.762 841.293L736.72 844.858L734.671 895.431ZM689.871 895.579C690.439 895.154 691.141 894.971 691.848 895.064L694.496 895.414L736.867 901.018L739.515 901.368C740.976 901.561 742.004 902.885 741.807 904.32C741.712 905.013 741.347 905.63 740.779 906.055C740.211 906.481 739.509 906.664 738.802 906.57L691.135 900.266C689.674 900.073 688.646 898.749 688.843 897.315C688.938 896.621 689.303 896.004 689.871 895.579ZM678.789 915.582L689.097 905.293L690.421 905.468L738.089 911.772L739.413 911.947L746.584 924.548C747.088 925.434 747.042 926.464 746.46 927.304C745.878 928.144 744.919 928.565 743.894 928.429L680.337 920.024C679.312 919.888 678.501 919.233 678.166 918.272C677.831 917.311 678.064 916.305 678.789 915.582ZM749.699 945.086L670.253 934.579L670.61 931.978C671.2 927.675 675.243 924.646 679.624 925.226L743.181 933.631C747.562 934.21 750.646 938.182 750.056 942.485L749.699 945.086Z" fill="#F7CC57"/>
</g>
<g opacity="0.16" clip-path="url(#clip4_73_399)">
<path d="M1391.56 273.428C1387.56 270.875 1382.19 271.996 1379.59 275.927C1378.21 278.01 1377.92 280.463 1378.51 282.694L1332.78 287.717L1338.65 249.55C1342.28 250.704 1346.39 249.417 1348.57 246.126C1351.17 242.196 1350.02 236.92 1346.02 234.368C1342.02 231.816 1336.65 232.936 1334.05 236.866C1331.87 240.157 1332.35 244.37 1334.9 247.16L1301.79 267.953L1287.85 224.878C1290.17 224.502 1292.33 223.236 1293.71 221.154C1296.31 217.222 1295.17 211.947 1291.16 209.395C1287.16 206.843 1281.79 207.963 1279.19 211.893C1276.59 215.823 1277.73 221.098 1281.74 223.651C1282.39 224.065 1283.08 224.348 1283.78 224.572C1283.76 224.633 1283.72 224.684 1283.7 224.75L1266.92 286.871L1264.08 285.062C1263.17 284.48 1261.95 284.736 1261.36 285.63L1256.7 292.674C1256.11 293.57 1256.36 294.767 1257.28 295.349L1325.41 338.8C1326.32 339.382 1327.54 339.126 1328.13 338.232L1332.79 331.188C1333.38 330.292 1333.12 329.095 1332.21 328.513L1329.37 326.704L1380.32 286.373C1380.37 286.332 1380.4 286.274 1380.45 286.227C1380.95 286.767 1381.49 287.273 1382.14 287.687C1386.14 290.239 1391.52 289.119 1394.11 285.189C1396.71 281.258 1395.57 275.981 1391.56 273.428ZM1282.95 214.292C1284.21 212.397 1286.79 211.855 1288.72 213.086C1290.65 214.318 1291.2 216.859 1289.95 218.754C1288.7 220.65 1286.11 221.19 1284.18 219.96C1282.25 218.73 1281.7 216.188 1282.95 214.292ZM1325.9 334.504L1261.07 293.159L1263.58 289.361L1328.41 330.706L1325.9 334.504ZM1337.81 239.265C1339.06 237.37 1341.65 236.828 1343.58 238.059C1345.51 239.291 1346.06 241.832 1344.81 243.727C1343.55 245.622 1340.96 246.164 1339.04 244.933C1337.11 243.703 1336.56 241.16 1337.81 239.265ZM1325.74 324.206L1270.71 289.108L1285.94 232.755L1298.57 271.812C1298.77 272.433 1299.25 272.927 1299.87 273.144C1300.5 273.366 1301.19 273.29 1301.74 272.94L1333.85 252.782L1328.16 289.785C1328.06 290.428 1328.27 291.078 1328.73 291.547C1329.18 292.015 1329.84 292.247 1330.5 292.174L1371.96 287.621L1325.74 324.206ZM1384.58 283.994C1382.65 282.763 1382.1 280.222 1383.35 278.326C1384.61 276.431 1387.19 275.889 1389.12 277.119C1391.05 278.351 1391.6 280.893 1390.35 282.787C1389.09 284.684 1386.51 285.224 1384.58 283.994Z" fill="#F7CC57"/>
</g>
<g opacity="0.16" clip-path="url(#clip5_73_399)">
<path d="M194.238 262.392L195.366 263.004C195.33 261.447 195.658 259.864 196.478 258.404C197.725 256.185 199.782 254.683 202.089 254.045C202.202 253.742 202.366 253.454 202.602 253.217C205.548 250.275 214.756 226.55 217.898 214.842C224.599 189.871 240.253 173.123 260.841 168.892C268.125 167.396 273.151 167.657 273.361 167.669C274.633 167.739 275.599 168.796 275.547 170.034L274.998 183.287L288.528 176.745C289.435 176.305 290.535 176.495 291.23 177.215C291.93 177.935 292.071 179.018 291.582 179.888L280.912 198.881L287.016 228.118C287.15 228.76 286.996 229.426 286.595 229.947C282.843 234.833 279.131 236.939 275.565 236.206C270.922 235.258 268.482 229.758 267.492 226.821C261.423 226.127 257.325 218.571 255.258 213.539C249.616 224.265 258.284 238.054 258.382 238.205C258.469 238.341 258.542 238.485 258.598 238.635C265.679 257.549 246.918 277.321 246.114 278.152C246.096 278.171 246.069 278.18 246.051 278.198C246.601 280.359 246.382 282.714 245.204 284.812C244.384 286.271 243.195 287.388 241.834 288.188L242.963 288.8C246.321 290.62 247.546 294.785 245.693 298.083C243.84 301.381 239.599 302.584 236.241 300.764L187.516 274.357C184.158 272.537 182.933 268.372 184.786 265.074C186.639 261.775 190.878 260.571 194.238 262.392ZM254.32 240.418C252.888 238.094 242.358 219.972 254.233 207.076C254.797 206.463 255.655 206.2 256.472 206.385C257.294 206.573 257.948 207.177 258.178 207.973C259.642 212.929 264.179 222.946 268.9 222.282C270.085 222.116 271.21 222.863 271.487 224.009C272.02 226.218 274.02 231.235 276.514 231.749C277.984 232.051 280.006 230.728 282.255 228.003L276.194 198.977C276.085 198.445 276.169 197.895 276.436 197.42L283.958 184.03L273.55 189.065C272.817 189.422 271.949 189.373 271.261 188.93C270.572 188.491 270.175 187.732 270.208 186.928L270.815 172.225C268.82 172.301 265.644 172.557 261.791 173.348C255.336 174.675 249.42 177.407 244.16 181.325L247.53 192.778C247.886 193.988 247.178 195.248 245.946 195.598C245.332 195.772 244.702 195.686 244.182 195.404C243.663 195.123 243.253 194.645 243.075 194.042L240.275 184.526C238.072 186.557 236.023 188.836 234.119 191.326C234.38 191.587 234.602 191.89 234.713 192.267L240.341 211.406C240.697 212.616 239.989 213.876 238.757 214.225C238.143 214.4 237.513 214.313 236.993 214.032C236.474 213.75 236.064 213.273 235.886 212.669L230.952 195.892C229.478 198.248 228.117 200.754 226.894 203.418C227.299 203.705 227.637 204.094 227.785 204.603L233.413 223.742C233.769 224.952 233.061 226.212 231.829 226.562C231.214 226.736 230.585 226.65 230.065 226.368C229.545 226.086 229.136 225.609 228.958 225.006L224.417 209.565C223.674 211.646 222.979 213.78 222.383 216.006C222.1 217.06 221.73 218.323 221.292 219.743C221.599 220.016 221.86 220.345 221.985 220.763L226.488 236.072C226.844 237.282 226.136 238.542 224.904 238.892C224.29 239.066 223.66 238.98 223.141 238.698C222.621 238.416 222.211 237.939 222.033 237.336L218.954 226.865C215.619 236.549 210.926 248.565 207.633 254.045L209.08 254.829L241.564 272.434L243.915 273.708C247.731 269.235 259.283 254.132 254.32 240.418ZM241.143 282.611C242.379 280.412 241.563 277.636 239.323 276.422L206.84 258.817C204.6 257.604 201.774 258.405 200.539 260.605C199.303 262.804 200.119 265.58 202.359 266.794L234.842 284.399C237.08 285.611 239.909 284.809 241.143 282.611ZM189.756 270.368L238.482 296.776C239.603 297.383 241.014 296.983 241.632 295.882C242.251 294.781 241.843 293.395 240.723 292.788L232.602 288.387L200.118 270.782L191.997 266.38C190.876 265.773 189.465 266.173 188.847 267.274C188.228 268.375 188.636 269.761 189.756 270.368Z" fill="#F7CC57"/>
</g>
<defs>
<clipPath id="clip0_73_399">
<rect width="134.911" height="136.281" fill="white" transform="matrix(0.474819 0.880083 -0.887053 0.461668 274.902 726.255)"/>
</clipPath>
<clipPath id="clip1_73_399">
<rect width="136.373" height="134.818" fill="white" transform="matrix(0.907782 -0.419442 0.431981 0.901883 1584.96 346.495)"/>
</clipPath>
<clipPath id="clip2_73_399">
<rect width="134.922" height="136.27" fill="white" transform="matrix(0.479505 -0.877539 0.884628 0.466298 638.429 274.316)"/>
</clipPath>
<clipPath id="clip3_73_399">
<rect width="136.769" height="134.417" fill="white" transform="matrix(0.991368 0.131108 -0.135824 0.990733 659.726 802.897)"/>
</clipPath>
<clipPath id="clip4_73_399">
<rect width="136.093" height="135.101" fill="white" transform="matrix(0.843117 0.537729 -0.55151 0.834168 1288.56 197.721)"/>
</clipPath>
<clipPath id="clip5_73_399">
<rect width="136.246" height="134.946" fill="white" transform="matrix(-0.879183 -0.476485 -0.489808 0.87183 338.883 202.919)"/>
</clipPath>
</defs>
</svg>
