<svg width="36" height="36" viewBox="0 0 36 36" fill="none" xmlns="http://www.w3.org/2000/svg">
<path d="M26.2056 29.7831C26.6232 28.9911 27.4091 27.0315 26.0043 25.0552C24.2225 22.5483 21.7381 15.1007 23.3892 10.0268H25.0068V0H23.0739V2.05369H21.141V0H18.9665V2.05369H17.0337V0H14.98V2.05369H13.0471V0H10.9934V10.0268H12.6915C14.3427 15.1007 11.8483 22.5483 10.0664 25.0552C8.6616 27.0314 9.41736 29.0062 9.83499 29.7982C9.34403 29.8442 8.9397 30.2421 8.9397 30.745V32.9195C8.9397 33.4532 9.41265 33.9463 9.94637 33.9463H10.0269V36H25.9733V33.9463H26.1343C26.668 33.9463 27.0605 33.4532 27.0605 32.9195V30.745C27.0605 30.2422 26.6964 29.8293 26.2056 29.7831Z" fill="#CBCBCB"/>
</svg>
