<svg width="107" height="95" viewBox="0 0 107 95" fill="none" xmlns="http://www.w3.org/2000/svg">
<path d="M16.276 61.9373L28.593 32.9944L65.5334 32.9896L53.2164 61.9326L16.276 61.9373Z" fill="#F0D9B5" stroke="black" stroke-width="3"/>
<path d="M55.3507 61.8532L67.6677 32.9103L104.608 32.9055L92.2911 61.8484L55.3507 61.8532Z" fill="#B58863" stroke="black" stroke-width="3"/>
<path d="M3.00108 93.1758L15.3181 64.2329L52.2584 64.2281L39.9414 93.1711L3.00108 93.1758Z" fill="#B58863" stroke="black" stroke-width="3"/>
<path d="M42.0568 93.1758L54.3738 64.2329L91.3142 64.2281L78.9972 93.171L42.0568 93.1758Z" fill="#F0D9B5" stroke="black" stroke-width="3"/>
<path d="M72.8049 56.4817L67.9102 68.0683C67.9102 68.0683 60.8477 72.6356 51.3496 73.9469C41.8515 75.2581 35.2877 72.8533 35.2877 72.8533L35.3536 61.6516L72.8049 56.4817Z" fill="#FFD5B8"/>
<path d="M73.0866 55.7292C74.0154 52.0423 66.3351 50.2187 55.9322 51.656C45.5293 53.0933 36.3432 57.2473 35.4144 60.9342C34.4857 64.6211 42.166 66.4447 52.5689 65.0074C62.9718 63.5701 72.1579 59.4161 73.0866 55.7292Z" fill="#FFEBD4"/>
<path d="M81.3242 2.67905L82.3371 14.2189C81.0566 14.9102 70.0024 20.8773 68.7187 21.5704C64.6213 22.1362 67.351 21.7594 56.0069 23.3253L45.2458 19.3387L52.3574 6.67755L56.6307 3.99905L52.761 12.3085L61.8679 11.0507L61.8118 1.93115L73.6189 0.301353L68.5349 9.85445L74.9059 9.16095L74.9056 9.16305L77.9512 8.83055L78.1402 1.02935L81.3242 2.67905Z" fill="#FFEBD4"/>
<path d="M58.652 6.24006L55.8031 11.8886L52.7613 12.3085L56.6322 3.99805L58.652 6.24006Z" fill="#FFD5B8"/>
<path d="M74.9065 9.16305C74.9115 9.14335 74.9081 9.21625 74.807 4.00995L78.1414 1.02885L77.9519 8.83105L74.9065 9.16305Z" fill="#FFD5B8"/>
<path d="M82.3373 14.2191C71.3936 20.1272 70.3303 20.7067 70.3423 20.694L65.3964 22.0293L56.0071 23.3254L45.246 19.3388C45.246 19.3388 65.4734 11.5681 82.3373 14.2191Z" fill="#FFD5B8"/>
<path d="M68.6774 21.8291C68.4917 24.2647 67.2384 43.4635 73.6015 49.0225C73.6015 49.0225 70.2948 55.2652 61.0178 58.6935C58.9055 59.4737 56.4838 60.1073 53.7206 60.4888C38.8257 62.5444 38.3718 53.5179 38.3718 53.5179C38.3718 53.5179 51.8995 41.3336 55.8646 23.3446C56.1736 23.302 67.6268 21.7222 68.6992 21.5726C68.6992 21.5726 68.6913 21.6616 68.6774 21.8291Z" fill="#FFEBD4"/>
<path d="M73.6015 49.0224C73.6015 49.0224 70.2947 55.2652 61.0178 58.6935C60.8329 58.1901 60.6825 57.6504 60.5701 57.0703C57.7629 42.6147 58.7897 27.3242 59.1811 22.8871L68.1848 21.6442C68.3482 21.7016 68.5116 21.7641 68.6774 21.8291C68.4916 24.2647 67.2384 43.4634 73.6015 49.0224Z" fill="#FFD5B8"/>
<path d="M73.6015 49.0224C73.6015 49.0224 68.6167 58.432 53.7206 60.4888C38.8257 62.5444 38.3718 53.5178 38.3718 53.5178C38.3718 53.5178 51.5541 61.8655 73.6015 49.0224Z" fill="#FFD5B8"/>
<path d="M53.2265 25.9193C53.2265 25.9193 65.2625 21.0029 70.624 23.5176C70.624 23.5176 72.0652 19.9409 70.7319 18.4668C69.3985 16.9927 57.1503 19.0162 54.8937 21.4951C52.6369 23.9741 53.2265 25.9193 53.2265 25.9193Z" fill="#FAE26B"/>
<path d="M54.0127 36.981C53.4646 35.4845 48.5306 44.6623 43.9558 50.5302C39.381 56.398 58.6092 49.5312 54.0127 36.981Z" fill="#FFF6EE"/>
<path d="M64.2927 61.8063C56.7894 64.6628 47.282 65.8274 41.2489 64.8576C41.1119 64.8357 40.9366 64.9515 40.8568 65.1166C40.7772 65.2817 40.824 65.4334 40.961 65.4555C47.0844 66.4398 56.6872 65.2591 64.2798 62.3686C64.4392 62.3079 64.5695 62.1326 64.573 61.9783C64.5765 61.823 64.451 61.7461 64.2927 61.8063Z" fill="black"/>
<path d="M81.5216 2.39755C78.0877 0.618251 78.3195 0.700152 78.1784 0.738452C78.1237 0.753452 78.0657 0.785351 78.0135 0.831451C77.7323 1.07975 78.9751 -0.0284488 74.6772 3.81395C74.577 3.90355 74.5178 4.02515 74.5199 4.13095L74.6124 8.90185L68.9857 9.51425L73.8586 0.358151C73.9656 0.157051 73.8823 -0.0232483 73.6942 0.00245166L61.8868 1.63245C61.7032 1.65775 61.5234 1.86555 61.5245 2.04875L61.5785 10.8023L56.2473 11.5382L58.8952 6.28805C58.9528 6.17365 58.9517 6.05895 58.8921 5.99285C56.7255 3.58835 56.8799 3.75625 56.852 3.73455C56.7889 3.68505 56.6944 3.68795 56.6005 3.73545C56.5563 3.75785 56.8569 3.57125 52.2925 6.43235C52.2238 6.47535 52.1632 6.53935 52.1227 6.61155L45.0112 19.2726C44.9237 19.4284 44.9481 19.5844 45.067 19.6285L53.6427 22.805C52.5519 24.7089 52.9436 26.0847 52.9487 26.1017C52.9819 26.2113 53.097 26.2507 53.2279 26.1973C53.2563 26.1858 53.9518 25.9049 55.064 25.5171C52.7712 34.0614 48.3756 41.1152 45.0659 45.5516C41.4218 50.4364 38.272 53.2944 38.2405 53.3228C38.1403 53.4134 38.0797 53.5396 38.085 53.6465C38.0888 53.7213 38.1736 55.1311 39.1761 56.7123C36.8892 58.1115 35.4978 59.5778 35.1468 60.9687C35.0327 61.4235 35.0745 60.4769 35 72.9677C34.9995 73.0536 35.0397 73.1185 35.1089 73.1439C35.1749 73.1682 41.8286 75.5502 51.2744 74.2452C60.7356 72.9401 67.9091 68.3566 67.9805 68.3102C68.0595 68.2592 68.1294 68.1788 68.1676 68.0882C73.8265 54.6904 72.9581 56.733 73.0546 56.5193C74.1798 54.422 72.8399 53.0645 71.3605 52.3166C71.3684 52.3082 71.3769 52.2994 71.3849 52.291C73.0744 50.5047 73.802 49.1527 73.8416 49.078C73.9081 48.9527 73.9033 48.826 73.8298 48.7617C68.3079 43.9384 68.5863 28.6296 68.8646 23.307C70.4072 23.6104 70.3763 23.9506 70.6814 23.7673C70.7702 23.7139 70.8454 23.6263 70.8839 23.5307C70.9244 23.43 71.5594 21.8282 71.586 20.3038L82.3773 14.4784C82.5284 14.3968 82.6354 14.2223 82.623 14.0809L81.6101 2.54095C81.6044 2.47515 81.5728 2.42405 81.5216 2.39755ZM72.829 55.7671C72.7398 56.1231 72.577 56.3909 72.5443 56.4687L67.7138 67.9054C66.7216 68.5157 60.0474 72.4576 51.4253 73.6469C42.7558 74.8449 36.4709 72.9011 35.5747 72.6017C35.649 60.1726 35.6158 61.2304 35.7006 60.8921C35.9987 59.7101 37.2955 58.407 39.4507 57.1159C42.252 60.9732 47.9807 61.5695 53.6452 60.7879C59.31 60.0057 65.8796 57.7626 70.8596 52.8281C72.4394 53.5918 73.1218 54.6049 72.829 55.7671ZM73.2445 49.1677C72.8713 49.7833 71.5878 51.7227 69.0903 53.8104C66.3007 56.1424 61.3829 59.1421 53.7961 60.1897C46.2096 61.2366 42.498 59.329 40.7201 57.5444C39.1017 55.9198 38.7477 54.0996 38.6757 53.5527C39.3914 52.8796 42.2351 50.1179 45.4489 45.8132C48.8321 41.2818 53.3312 34.0626 55.6514 25.316C58.8011 24.2554 64.3627 22.6806 68.3075 23.2155C68.0256 28.2579 67.6344 44.025 73.2445 49.1677ZM70.5087 23.0998C65.3746 21.0338 55.2156 24.8557 53.4675 25.5446C53.3979 25.0232 53.3816 23.4988 55.0607 21.6544C56.2182 20.3808 60.2604 19.3852 61.6681 19.0793C65.8855 18.1628 69.8433 17.9993 70.4906 18.715C71.4667 19.7939 70.8234 22.153 70.5087 23.0998ZM82.0291 14.1039L71.5657 19.7523C71.5105 19.1667 71.3383 18.6229 70.9731 18.219C69.5577 16.6546 57.1401 18.6931 54.7264 21.3363C54.4483 21.6417 54.2125 21.9397 54.0099 22.229L45.6363 19.1272L52.5288 6.85615L56.4989 4.36755L58.3122 6.38015L55.6706 11.6178L52.8364 12.009C52.6835 12.0301 52.5259 12.1813 52.4843 12.3464C52.4427 12.5115 52.5328 12.6284 52.6857 12.6073L61.7925 11.3501C61.9741 11.325 62.1558 11.1189 62.1548 10.9338L62.1008 2.18025L73.1621 0.653251L68.2955 9.79755C68.1907 9.99455 68.2678 10.1745 68.4522 10.1541C68.9673 10.0981 77.3534 9.18685 77.8683 9.13065C78.0204 9.11415 78.1801 8.96595 78.2258 8.80075C78.2716 8.63505 78.1858 8.51415 78.0341 8.53065L75.1897 8.84075L75.0971 4.06295L78.0901 1.38715L81.0474 2.91945L82.0291 14.1039Z" fill="black"/>
<path d="M53.7537 16.4106C53.5966 16.452 53.4513 16.6166 53.4291 16.7777C53.4066 16.939 53.5156 17.0363 53.6725 16.9949C58.9333 15.6077 66.8708 13.9566 74.8086 13.9695C74.901 13.9697 75.0021 13.9159 75.0794 13.8342C75.2656 13.6373 75.242 13.3668 75.0289 13.3665C67.0355 13.3536 59.0474 15.0147 53.7537 16.4106Z" fill="black"/>
<path d="M65.5383 52.7129C56.5353 56.3138 49.5459 56.1966 45.2678 55.4643C45.1315 55.441 44.9556 55.5555 44.8749 55.7206C44.7942 55.8855 44.8396 56.0382 44.976 56.0614C49.3153 56.8043 56.4049 56.923 65.5367 53.2706C65.6962 53.2069 65.824 53.0301 65.8243 52.877C65.8247 52.7232 65.6967 52.6496 65.5383 52.7129Z" fill="black"/>
</svg>
