<svg width="948" height="991" viewBox="0 0 948 991" fill="none" xmlns="http://www.w3.org/2000/svg">
<g opacity="0.16" clip-path="url(#clip0_73_399)">
<path d="M362.481 414.12L360.012 409.495L364.604 407.08C365.432 406.645 365.737 405.844 365.298 405.022L361.33 397.588C360.891 396.766 359.875 396.237 359.047 396.673L354.456 399.088L352.162 394.792C351.724 393.97 350.708 393.441 349.88 393.877L342.39 397.816C341.562 398.252 341.238 399.485 341.676 400.307L343.97 404.602L339.573 406.915C338.745 407.35 338.421 408.584 338.86 409.406L342.829 416.84C343.267 417.661 344.302 417.758 345.13 417.323L349.526 415.01L351.996 419.635C352.434 420.457 353.469 420.554 354.297 420.118L361.787 416.179C362.615 415.743 362.92 414.942 362.481 414.12ZM354.11 416.408L351.816 412.112C351.378 411.291 350.362 410.762 349.534 411.197L344.943 413.612L342.561 409.152L347.153 406.737C347.981 406.301 348.286 405.5 347.847 404.678L345.378 400.053L349.872 397.689L352.342 402.315C352.78 403.136 353.815 403.233 354.643 402.798L359.039 400.485L361.421 404.946L357.024 407.258C356.196 407.694 355.872 408.927 356.31 409.749L358.604 414.044L354.11 416.408Z" fill="#F7CC57"/>
<path d="M309.898 455.606C316.778 457.535 331.408 460.829 339.387 456.415C342.209 454.854 343.961 452.439 344.66 449.358C346.202 442.553 343.788 437.547 337.666 434.578L343.196 431.669C344.024 431.234 344.33 430.433 343.891 429.611L329.603 402.848C329.164 402.026 328.148 401.498 327.32 401.933L321.628 404.927C322.223 402.234 321.997 399.626 321.041 397.432C319.768 394.472 317.194 392.265 313.385 390.779C310.424 389.622 307.471 389.786 304.585 391.228C296.408 395.31 290.873 409.11 288.626 415.829C287.163 413.844 284.372 413.096 282.115 414.283L279.113 415.862C276.636 417.164 275.678 420.435 276.987 422.887L297.639 461.571C298.949 464.023 302.037 464.743 304.514 463.44L307.516 461.861C309.836 460.641 310.859 457.966 309.898 455.606ZM306.198 394.212C308.214 393.208 310.113 393.15 312.167 393.95C315.103 395.098 317.069 396.75 317.973 398.85C319.268 401.823 318.364 405.373 317.377 407.826C317.114 408.481 317.244 409.152 317.776 409.619C318.305 410.091 319.03 410.102 319.658 409.772L327.313 405.746L340.013 429.535L332.6 433.434C331.975 433.762 331.667 434.521 331.756 435.218C331.846 435.909 332.382 436.521 333.071 436.682C340.023 438.307 342.832 442.363 341.397 448.7C340.911 450.836 339.801 452.374 337.832 453.465C329.589 458.026 311.591 452.665 308.084 451.486L306.815 449.11C306.712 448.916 306.239 448.928 306.148 448.758L292.468 423.136C292.371 422.954 292.64 422.558 292.527 422.348L291.149 419.766C292.136 416.223 297.767 398.421 306.198 394.212ZM300.635 459.995L279.983 421.312C279.549 420.498 279.875 419.269 280.7 418.835L283.702 417.257C284.527 416.823 285.541 417.347 285.975 418.16L289.157 424.12L303.445 450.883L306.627 456.843C307.061 457.656 306.754 458.453 305.928 458.887L302.926 460.466C302.101 460.9 301.069 460.808 300.635 459.995Z" fill="#F7CC57"/>
</g>
<g opacity="0.16" clip-path="url(#clip1_73_399)">
<path d="M719.906 180.63C716.97 179.241 713.505 180.012 711.431 182.373L678.015 169.416L678.119 169.224C679.031 167.538 678.391 165.431 676.693 164.526C675.415 163.846 673.897 164.038 672.835 164.892C672.529 164.444 672.126 164.053 671.613 163.779C670.72 163.304 669.714 163.264 668.824 163.567C667.593 160.288 665.247 157.601 662.101 155.925C655.048 152.165 646.229 154.805 642.443 161.807C638.657 168.809 641.315 177.562 648.371 181.32C651.516 182.996 655.07 183.451 658.504 182.655C658.74 183.559 659.331 184.37 660.223 184.846C660.736 185.119 661.287 185.236 661.833 185.242C661.702 186.592 662.38 187.954 663.658 188.635C665.356 189.539 667.479 188.904 668.391 187.217L668.495 187.026L697.845 207.502C697.009 210.522 698.276 213.813 701.065 215.474C700.458 217.243 701.2 219.243 702.912 220.155L706.701 222.173C707.227 222.454 707.882 222.257 708.164 221.735L729.087 183.041C729.369 182.519 729.172 181.869 728.646 181.588L724.857 179.57C723.145 178.658 721.056 179.15 719.906 180.63ZM649.393 179.43C643.389 176.232 641.125 168.781 644.348 162.821C647.57 156.862 655.077 154.616 661.081 157.814C663.968 159.351 666.059 161.891 667.025 164.983C666.978 165.055 666.922 165.118 666.881 165.194L658.796 180.147C658.754 180.224 658.733 180.305 658.698 180.382C655.569 181.293 652.278 180.967 649.393 179.43ZM670.591 165.668C671.241 166.014 671.484 166.818 671.136 167.462L663.051 182.414C662.705 183.057 661.894 183.301 661.244 182.955C660.596 182.609 660.352 181.805 660.7 181.161L668.785 166.21C669.133 165.566 669.944 165.324 670.591 165.668ZM666.486 186.202C666.138 186.845 665.329 187.088 664.68 186.743C664.031 186.397 663.787 185.593 664.135 184.949L664.958 183.428L673.042 168.476L673.865 166.956C674.213 166.312 675.023 166.069 675.672 166.415C676.32 166.76 676.564 167.564 676.216 168.208L666.486 186.202ZM669.524 185.12L676.987 171.318L710.228 184.207L698.721 205.49L669.524 185.12ZM700.34 207.033L712.419 184.695C713.658 182.404 716.455 181.491 718.817 182.51L702.043 213.533C699.882 212.142 699.102 209.324 700.34 207.033ZM726.672 182.97L706.771 219.776L703.934 218.264C703.079 217.809 702.756 216.747 703.215 215.899L721.451 182.173C721.911 181.324 722.98 181.004 723.835 181.459L726.672 182.97Z" fill="#F7CC57"/>
</g>
<g opacity="0.16" clip-path="url(#clip2_73_399)">
<path d="M205.506 797.499C204.583 797.375 203.732 798.019 203.608 798.936C203.483 799.853 204.132 800.698 205.056 800.821C205.98 800.944 206.83 800.301 206.955 799.384C207.079 798.467 206.43 797.622 205.506 797.499Z" fill="#F7CC57"/>
<path d="M225.589 800.183L212.201 798.394C211.276 798.27 210.426 798.914 210.302 799.831C210.177 800.748 210.826 801.592 211.75 801.716L225.139 803.505C226.063 803.629 226.913 802.985 227.038 802.068C227.162 801.15 226.514 800.306 225.589 800.183Z" fill="#F7CC57"/>
<path d="M238.75 809.837C238.89 809.679 239.022 809.513 239.144 809.336C240.23 807.751 240.319 805.727 239.377 804.055L235.043 796.357C235.985 795.554 236.591 794.451 236.758 793.219C237.131 790.472 235.181 787.935 232.413 787.565L232.263 787.545L233.578 754.738L240.359 753.458C242.505 753.054 244.143 751.338 244.435 749.188L245.913 738.295C246.037 737.377 245.389 736.533 244.465 736.41L237.77 735.515C236.846 735.392 235.996 736.035 235.871 736.953L235.195 741.936L231.848 741.489L232.524 736.505C232.649 735.588 232 734.744 231.076 734.621L217.687 732.831C216.763 732.708 215.913 733.351 215.788 734.269L215.112 739.252L211.765 738.805L212.441 733.821C212.566 732.904 211.917 732.06 210.993 731.937L204.299 731.042C203.374 730.918 202.524 731.562 202.4 732.479L200.922 743.373C200.63 745.522 201.753 747.607 203.714 748.56L209.913 751.575L202.439 783.559L202.288 783.539C200.948 783.36 199.617 783.71 198.54 784.525C197.464 785.339 196.772 786.521 196.592 787.851C196.42 789.119 196.743 790.341 197.411 791.326L191.178 797.613C189.824 798.979 189.37 800.954 189.996 802.768C190.066 802.97 190.149 803.165 190.242 803.354C187.541 804.456 185.486 806.916 185.069 809.988L184.618 813.311C184.494 814.228 185.142 815.072 186.066 815.195L239.621 822.353C240.545 822.476 241.396 821.833 241.52 820.915L241.971 817.593C242.388 814.521 241.061 811.608 238.75 809.837ZM205.2 745.55C204.546 745.232 204.172 744.537 204.269 743.82L205.521 734.588L208.869 735.035L208.193 740.018C208.068 740.936 208.717 741.78 209.641 741.903L216.335 742.798C217.26 742.921 218.11 742.278 218.234 741.36L218.91 736.377L228.952 737.719L228.276 742.702C228.151 743.62 228.8 744.464 229.724 744.587L236.418 745.482C237.342 745.605 238.193 744.962 238.317 744.044L238.993 739.061L242.34 739.508L241.088 748.741C240.991 749.458 240.445 750.03 239.729 750.165L231.898 751.643L212.358 749.031L205.2 745.55ZM228.9 787.096L205.801 784.009L213.159 752.521L230.196 754.798L228.9 787.096ZM200.589 787.19C200.948 786.918 201.391 786.802 201.838 786.861L203.511 787.085L230.289 790.664L231.962 790.887C232.885 791.011 233.535 791.856 233.411 792.772C233.35 793.215 233.12 793.609 232.761 793.881C232.402 794.152 231.958 794.269 231.512 794.21L201.387 790.184C200.464 790.06 199.815 789.215 199.939 788.299C199.999 787.856 200.23 787.462 200.589 787.19ZM193.585 799.965L200.1 793.394L200.936 793.506L231.061 797.532L231.898 797.644L236.429 805.691C236.748 806.257 236.719 806.914 236.351 807.451C235.984 807.987 235.377 808.256 234.73 808.169L194.564 802.801C193.916 802.715 193.403 802.297 193.191 801.682C192.98 801.069 193.127 800.427 193.585 799.965ZM238.398 818.807L188.191 812.097L188.416 810.436C188.789 807.688 191.344 805.753 194.113 806.123L234.279 811.491C237.047 811.861 238.996 814.398 238.624 817.146L238.398 818.807Z" fill="#F7CC57"/>
</g>
<g opacity="0.16" clip-path="url(#clip3_73_399)">
<path d="M128.061 163.442L128.774 163.832C128.751 162.838 128.959 161.827 129.477 160.895C130.265 159.477 131.565 158.518 133.023 158.111C133.094 157.917 133.198 157.733 133.347 157.582C135.209 155.703 141.028 140.552 143.014 133.074C147.249 117.127 157.142 106.431 170.152 103.729C174.756 102.773 177.932 102.94 178.065 102.948C178.868 102.992 179.479 103.667 179.446 104.458L179.099 112.922L187.65 108.744C188.223 108.463 188.918 108.585 189.357 109.044C189.799 109.504 189.888 110.196 189.58 110.751L182.836 122.881L186.694 141.553C186.779 141.963 186.681 142.388 186.428 142.721C184.057 145.841 181.711 147.186 179.457 146.718C176.523 146.113 174.981 142.6 174.356 140.724C170.52 140.281 167.93 135.456 166.624 132.242C163.058 139.092 168.536 147.898 168.598 147.995C168.653 148.082 168.7 148.173 168.735 148.269C173.21 160.349 161.353 172.975 160.845 173.506C160.834 173.518 160.817 173.524 160.805 173.536C161.153 174.916 161.015 176.42 160.27 177.759C159.752 178.692 159 179.405 158.141 179.916L158.854 180.306C160.976 181.469 161.75 184.129 160.579 186.235C159.408 188.341 156.728 189.109 154.606 187.947L123.813 171.082C121.691 169.92 120.917 167.26 122.088 165.154C123.259 163.048 125.937 162.279 128.061 163.442ZM166.031 149.408C165.126 147.924 158.472 136.351 165.976 128.115C166.333 127.723 166.875 127.555 167.391 127.674C167.91 127.793 168.324 128.179 168.469 128.688C169.395 131.852 172.262 138.25 175.246 137.826C175.994 137.719 176.705 138.197 176.88 138.929C177.217 140.339 178.481 143.543 180.057 143.872C180.986 144.065 182.264 143.22 183.685 141.48L179.855 122.942C179.786 122.602 179.839 122.251 180.007 121.948L184.762 113.397L178.184 116.612C177.721 116.84 177.172 116.809 176.737 116.526C176.302 116.246 176.051 115.761 176.072 115.247L176.455 105.857C175.195 105.906 173.188 106.069 170.753 106.575C166.673 107.422 162.935 109.167 159.611 111.669L161.74 118.983C161.965 119.756 161.518 120.561 160.739 120.784C160.351 120.895 159.953 120.84 159.624 120.66C159.296 120.481 159.037 120.176 158.925 119.791L157.155 113.713C155.763 115.01 154.468 116.466 153.265 118.056C153.43 118.223 153.57 118.416 153.64 118.657L157.197 130.88C157.422 131.652 156.974 132.457 156.196 132.68C155.807 132.792 155.41 132.737 155.081 132.557C154.753 132.377 154.494 132.072 154.381 131.687L151.264 120.972C150.332 122.477 149.472 124.077 148.698 125.778C148.955 125.962 149.168 126.21 149.262 126.535L152.818 138.758C153.043 139.531 152.596 140.336 151.817 140.559C151.429 140.67 151.031 140.615 150.703 140.435C150.374 140.255 150.115 139.95 150.003 139.565L147.134 129.704C146.664 131.033 146.225 132.396 145.848 133.817C145.669 134.49 145.435 135.297 145.159 136.204C145.353 136.379 145.517 136.588 145.596 136.856L148.442 146.633C148.667 147.405 148.22 148.21 147.441 148.433C147.053 148.545 146.655 148.489 146.327 148.31C145.998 148.13 145.739 147.825 145.627 147.44L143.681 140.752C141.573 146.937 138.608 154.611 136.526 158.111L137.441 158.612L157.97 169.855L159.455 170.669C161.867 167.811 169.168 158.166 166.031 149.408ZM157.704 176.354C158.485 174.949 157.969 173.177 156.554 172.402L136.025 161.159C134.61 160.383 132.824 160.895 132.043 162.3C131.262 163.705 131.778 165.477 133.193 166.252L153.722 177.496C155.136 178.27 156.924 177.757 157.704 176.354ZM125.229 168.535L156.022 185.4C156.73 185.788 157.622 185.532 158.013 184.83C158.404 184.127 158.146 183.241 157.438 182.853L152.306 180.043L131.777 168.799L126.645 165.989C125.937 165.601 125.045 165.856 124.654 166.559C124.263 167.262 124.521 168.148 125.229 168.535Z" fill="#F7CC57"/>
</g>
<g opacity="0.16" clip-path="url(#clip4_73_399)">
<path d="M918.182 706.349C915.652 704.719 912.258 705.435 910.616 707.945C909.746 709.275 909.557 710.842 909.932 712.267L881.03 715.475L884.74 691.1C887.035 691.837 889.634 691.015 891.009 688.913C892.652 686.403 891.929 683.034 889.4 681.404C886.871 679.774 883.476 680.489 881.834 682.999C880.459 685.101 880.761 687.791 882.372 689.573L861.445 702.852L852.641 675.343C854.106 675.103 855.471 674.295 856.341 672.965C857.984 670.454 857.261 667.085 854.732 665.455C852.203 663.825 848.809 664.541 847.166 667.051C845.524 669.561 846.246 672.929 848.776 674.56C849.186 674.824 849.623 675.005 850.068 675.148C850.054 675.187 850.027 675.219 850.016 675.261L839.408 714.934L837.615 713.779C837.039 713.407 836.268 713.571 835.894 714.142L832.951 718.64C832.577 719.213 832.741 719.977 833.317 720.349L876.372 748.098C876.949 748.47 877.72 748.306 878.093 747.735L881.036 743.237C881.411 742.664 881.247 741.9 880.67 741.529L878.878 740.373L911.077 714.616C911.11 714.59 911.13 714.553 911.161 714.523C911.473 714.868 911.817 715.191 912.227 715.455C914.756 717.085 918.151 716.37 919.793 713.86C921.436 711.35 920.711 707.979 918.182 706.349ZM849.544 668.583C850.335 667.373 851.971 667.026 853.19 667.812C854.409 668.599 854.756 670.222 853.965 671.432C853.172 672.643 851.537 672.988 850.318 672.203C849.099 671.417 848.751 669.794 849.544 668.583ZM876.682 745.355L835.714 718.95L837.301 716.524L878.269 742.929L876.682 745.355ZM884.211 684.531C885.003 683.321 886.639 682.975 887.858 683.761C889.076 684.548 889.424 686.171 888.632 687.381C887.841 688.591 886.205 688.937 884.986 688.151C883.766 687.366 883.42 685.742 884.211 684.531ZM876.584 738.778L841.806 716.363L851.429 680.374L859.413 705.317C859.54 705.714 859.845 706.029 860.236 706.168C860.63 706.309 861.066 706.261 861.419 706.037L881.706 693.164L878.11 716.796C878.048 717.206 878.181 717.621 878.471 717.92C878.757 718.22 879.173 718.368 879.59 718.321L905.794 715.413L876.584 738.778ZM913.767 713.097C912.548 712.311 912.201 710.688 912.993 709.477C913.785 708.267 915.421 707.921 916.64 708.706C917.858 709.493 918.206 711.116 917.414 712.326C916.622 713.538 914.986 713.883 913.767 713.097Z" fill="#F7CC57"/>
</g>
<g opacity="0.16" clip-path="url(#clip5_73_399)">
<path d="M622.479 562.761C622.699 560.627 622.395 556.69 617.795 554.494C617.931 553.729 617.837 552.869 617.282 552.13C615.998 550.377 613.968 550.439 612.99 550.891L611.847 551.419C607.453 547.801 602.474 541.557 599.304 535.671C599.286 535.616 599.266 535.564 599.24 535.511C599.21 535.448 599.174 535.387 599.135 535.332L595.249 527.453C596.624 526.721 597.18 525.01 596.485 523.559C596.097 522.749 595.399 522.179 594.608 521.933C595.44 517.907 593.891 513.229 591.58 511.236C588.666 508.733 586.194 507.333 582.455 505.213C581.481 504.659 580.417 504.056 579.231 503.37C579.597 502.314 579.516 501.114 578.969 499.97C578.44 498.868 577.566 498.115 576.542 497.769C575.535 497.4 574.387 497.411 573.339 497.895C572.804 498.142 572.354 498.489 571.991 498.899C571.383 499.524 571.05 500.311 571 501.176C570.929 501.881 571.029 502.611 571.358 503.299C571.454 503.5 571.575 503.68 571.698 503.858C572.321 504.957 573.072 505.551 573.795 505.854C573.712 506.357 573.624 506.891 573.536 507.424C573.299 508.851 573.062 510.281 572.931 511.156C572.885 511.468 572.967 511.78 573.153 512.028C572.943 512.216 572.804 512.474 572.769 512.76C572.68 513.482 572.563 514.201 572.445 514.923C572.166 516.63 571.878 518.395 571.935 520.311C572.027 523.58 575.01 527.516 578.549 529.356C578.239 530.11 578.242 530.997 578.63 531.807C579.315 533.239 580.974 533.91 582.413 533.376L586.214 541.472C588.459 546.736 590.801 554.61 590.772 561.157L589.31 561.832C588.518 562.198 587.072 563.666 587.648 565.851C587.87 566.746 588.476 567.394 589.181 567.792C588.119 572.504 590.658 575.317 592.274 576.577C592.118 577.075 591.997 577.662 592.029 578.231C592.098 579.34 592.809 580.878 592.951 581.176C593.086 581.458 593.33 581.677 593.63 581.784C593.931 581.89 594.261 581.875 594.549 581.742L624.973 567.685C625.272 567.547 625.499 567.294 625.601 566.989C625.706 566.681 625.674 566.345 625.519 566.061C625.424 565.889 624.578 564.361 623.835 563.635C623.465 563.272 622.969 562.982 622.479 562.761ZM588.412 540.524L584.089 531.32C583.955 531.035 583.71 530.814 583.41 530.706C583.109 530.598 582.778 530.612 582.488 530.746L581.602 531.155C581.317 531.287 580.959 531.129 580.803 530.804C580.647 530.479 580.747 530.096 581.022 529.969C581.468 529.763 581.74 529.31 581.709 528.828C581.679 528.345 581.35 527.929 580.88 527.78C577.439 526.686 574.405 522.723 574.335 520.246C574.284 518.551 574.542 516.97 574.815 515.297C574.822 515.259 574.827 515.222 574.834 515.184L577.302 517.255C577.874 517.911 578.906 518.363 580.007 517.854L580.008 517.853C580.823 517.449 580.991 516.825 581.019 516.49C581.09 515.616 580.419 515.018 580.147 514.812L575.405 510.858C575.538 510.013 575.722 508.907 575.905 507.805C576.042 506.978 576.176 506.158 576.293 505.444C576.483 505.387 576.674 505.334 576.859 505.248C577.017 505.175 577.156 505.078 577.301 504.987C578.778 505.851 580.082 506.591 581.254 507.256C584.871 509.307 587.26 510.661 589.995 513.01C591.934 514.68 593.185 519.479 591.882 522.698C591.701 523.148 591.817 523.662 592.176 523.993C592.534 524.324 593.062 524.407 593.51 524.2C593.789 524.071 594.157 524.238 594.312 524.563C594.468 524.888 594.364 525.26 594.08 525.391L593.131 525.829C592.841 525.963 592.617 526.207 592.51 526.504C592.403 526.802 592.421 527.127 592.561 527.411L597.009 536.432C597.027 536.48 597.046 536.525 597.07 536.568C600.116 542.289 604.854 548.388 609.238 552.314L593.15 559.748C592.876 553.166 590.603 545.665 588.412 540.524ZM620.77 564.631C621.38 564.829 621.933 565.101 622.145 565.308C622.312 565.472 622.534 565.773 622.755 566.104L594.677 579.078C594.543 578.697 594.44 578.33 594.426 578.092C594.406 577.757 594.559 577.185 594.817 576.637C595.068 576.098 594.874 575.46 594.362 575.146C593.082 574.358 590.268 572.031 591.767 567.426C591.874 567.097 591.829 566.738 591.644 566.446C591.459 566.152 591.152 565.955 590.804 565.902C590.623 565.874 590.081 565.705 589.975 565.278C589.733 564.36 590.351 563.957 590.332 563.965L613.991 553.034C613.999 553.03 614.779 552.753 615.34 553.517C615.556 553.807 615.41 554.306 615.259 554.573C615.086 554.872 615.057 555.232 615.177 555.554C615.296 555.877 615.557 556.133 615.885 556.254C620.406 557.913 620.386 561.359 619.972 563.265C619.844 563.854 620.188 564.443 620.77 564.631ZM589.299 520.074C589.804 518.908 589.834 517.821 589.387 516.749C588.243 514.011 584.389 512.428 584.349 512.413C583.941 512.247 583.746 511.789 583.913 511.387C584.081 510.986 584.546 510.794 584.956 510.957C585.139 511.032 589.462 512.798 590.864 516.148C591.477 517.609 591.445 519.138 590.771 520.69C590.692 520.875 590.548 521.013 590.376 521.093C590.177 521.185 589.94 521.196 589.721 521.105C589.315 520.935 589.126 520.473 589.299 520.074Z" fill="#F7CC57"/>
</g>
<defs>
<clipPath id="clip0_73_399">
<rect width="85.9575" height="86.3199" fill="white" transform="matrix(0.470965 0.882152 -0.885054 0.465488 343.398 364)"/>
</clipPath>
<clipPath id="clip1_73_399">
<rect width="85.9604" height="86.317" fill="white" transform="matrix(0.475636 -0.879642 0.882594 0.470135 622 199.614)"/>
</clipPath>
<clipPath id="clip2_73_399">
<rect width="86.4494" height="85.8272" fill="white" transform="matrix(0.991187 0.132467 -0.134431 0.990923 181.538 728)"/>
</clipPath>
<clipPath id="clip3_73_399">
<rect width="86.3107" height="85.9667" fill="white" transform="matrix(-0.877073 -0.480357 -0.485906 0.874011 219.473 125.46)"/>
</clipPath>
<clipPath id="clip4_73_399">
<rect width="86.27" height="86.0075" fill="white" transform="matrix(0.840543 0.541744 -0.547484 0.836816 853.088 658)"/>
</clipPath>
<clipPath id="clip5_73_399">
<rect width="86" height="85.0194" fill="white" transform="matrix(0.907782 -0.419442 0.431981 0.901883 534 516.072)"/>
</clipPath>
</defs>
</svg>
