<svg width="1662" height="855" viewBox="0 0 1662 855" fill="none" xmlns="http://www.w3.org/2000/svg">
<g opacity="0.16" clip-path="url(#clip0_73_399)">
<path d="M149.085 675.846L145.229 668.57L152.398 664.771C153.691 664.086 154.168 662.826 153.483 661.533L147.286 649.838C146.601 648.545 145.015 647.714 143.722 648.399L136.553 652.197L132.973 645.44C132.287 644.147 130.702 643.315 129.409 644L117.714 650.197C116.421 650.883 115.915 652.823 116.6 654.116L120.181 660.873L113.316 664.511C112.023 665.196 111.517 667.136 112.202 668.429L118.399 680.124C119.084 681.417 120.699 681.569 121.992 680.884L128.857 677.246L132.712 684.522C133.397 685.815 135.012 685.967 136.305 685.282L148 679.085C149.293 678.4 149.77 677.139 149.085 675.846ZM136.013 679.445L132.432 672.687C131.747 671.394 130.161 670.563 128.869 671.248L121.7 675.047L117.981 668.03L125.15 664.231C126.443 663.546 126.92 662.285 126.235 660.992L122.38 653.716L129.397 649.998L133.252 657.274C133.937 658.567 135.552 658.719 136.845 658.034L143.71 654.396L147.428 661.413L140.563 665.051C139.271 665.736 138.764 667.676 139.449 668.969L143.03 675.727L136.013 679.445Z" fill="#F7CC57"/>
<path d="M66.9802 741.109C77.7235 744.143 100.566 749.325 113.025 742.381C117.432 739.926 120.166 736.127 121.258 731.28C123.666 720.575 119.897 712.7 110.338 708.029L118.973 703.453C120.265 702.768 120.743 701.508 120.058 700.215L97.7481 658.114C97.063 656.821 95.4771 655.989 94.1843 656.674L85.2967 661.384C86.2257 657.147 85.8717 653.045 84.3794 649.593C82.3915 644.936 78.3722 641.465 72.4263 639.127C67.8016 637.306 63.1907 637.565 58.6846 639.833C45.9179 646.256 37.2752 667.964 33.7663 678.534C31.4829 675.412 27.1242 674.235 23.6003 676.102L18.9132 678.586C15.0461 680.635 13.5493 685.78 15.5936 689.638L47.8402 750.492C49.8845 754.35 54.7074 755.482 58.5744 753.433L63.2616 750.949C66.8836 749.03 68.4815 744.822 66.9802 741.109ZM61.2039 644.528C64.3512 642.948 67.3168 642.857 70.5232 644.116C75.1082 645.922 78.1784 648.52 79.5899 651.824C81.612 656.501 80.2003 662.085 78.6586 665.944C78.2481 666.975 78.4503 668.03 79.2817 668.766C80.1075 669.507 81.2404 669.525 82.2203 669.005L94.1721 662.672L114.003 700.096L102.428 706.229C101.453 706.746 100.97 707.94 101.11 709.036C101.25 710.123 102.087 711.085 103.164 711.339C114.018 713.896 118.405 720.275 116.163 730.245C115.404 733.605 113.672 736.024 110.597 737.741C97.7266 744.915 69.6246 736.482 64.148 734.627L62.1679 730.89C62.0057 730.584 61.2672 730.604 61.1256 730.337L39.7662 690.028C39.6149 689.743 40.0339 689.12 39.8584 688.789L37.7063 684.727C39.2469 679.155 48.0402 651.149 61.2039 644.528ZM52.518 748.013L20.2715 687.159C19.5937 685.88 20.1035 683.946 21.3919 683.264L26.0791 680.78C27.3673 680.097 28.9498 680.922 29.6276 682.201L34.5961 691.578L56.9056 733.679L61.8742 743.055C62.552 744.335 62.0711 745.588 60.7827 746.271L56.0956 748.755C54.8074 749.437 53.1958 749.292 52.518 748.013Z" fill="#F7CC57"/>
</g>
<g opacity="0.16" clip-path="url(#clip1_73_399)">
<path d="M1620.45 265.849C1620.79 262.449 1620.31 256.177 1613.12 252.679C1613.33 251.459 1613.18 250.091 1612.31 248.913C1610.3 246.119 1607.13 246.219 1605.6 246.938L1603.81 247.78C1596.93 242.017 1589.14 232.069 1584.18 222.692C1584.16 222.605 1584.12 222.521 1584.08 222.437C1584.04 222.336 1583.98 222.238 1583.92 222.152L1577.84 209.599C1579.99 208.433 1580.86 205.707 1579.77 203.395C1579.17 202.105 1578.07 201.198 1576.83 200.805C1578.14 194.39 1575.71 186.938 1572.1 183.763C1567.54 179.776 1563.67 177.545 1557.82 174.168C1556.29 173.285 1554.63 172.324 1552.77 171.231C1553.35 169.549 1553.22 167.637 1552.36 165.815C1551.54 164.059 1550.17 162.86 1548.57 162.308C1546.99 161.721 1545.19 161.739 1543.56 162.51C1542.72 162.903 1542.01 163.455 1541.45 164.109C1540.49 165.105 1539.97 166.358 1539.89 167.736C1539.78 168.859 1539.94 170.023 1540.46 171.118C1540.61 171.438 1540.8 171.726 1540.99 172.009C1541.96 173.76 1543.14 174.707 1544.27 175.189C1544.14 175.99 1544 176.84 1543.86 177.69C1543.49 179.963 1543.12 182.242 1542.92 183.636C1542.84 184.133 1542.97 184.63 1543.26 185.026C1542.93 185.324 1542.72 185.736 1542.66 186.192C1542.52 187.341 1542.34 188.487 1542.16 189.637C1541.72 192.357 1541.27 195.168 1541.36 198.221C1541.5 203.429 1546.17 209.699 1551.71 212.63C1551.22 213.832 1551.23 215.245 1551.83 216.536C1552.91 218.816 1555.5 219.886 1557.75 219.036L1563.7 231.933C1567.21 240.319 1570.88 252.864 1570.83 263.293L1568.55 264.37C1567.31 264.952 1565.04 267.291 1565.94 270.773C1566.29 272.197 1567.24 273.23 1568.34 273.865C1566.68 281.371 1570.65 285.853 1573.18 287.86C1572.94 288.654 1572.75 289.589 1572.8 290.495C1572.91 292.262 1574.02 294.713 1574.24 295.187C1574.45 295.636 1574.84 295.985 1575.31 296.156C1575.78 296.325 1576.29 296.301 1576.74 296.089L1624.35 273.694C1624.82 273.474 1625.17 273.07 1625.33 272.585C1625.5 272.094 1625.45 271.558 1625.2 271.106C1625.05 270.832 1623.73 268.398 1622.57 267.242C1621.99 266.664 1621.21 266.202 1620.45 265.849ZM1567.14 230.424L1560.38 215.759C1560.17 215.306 1559.78 214.953 1559.31 214.782C1558.84 214.609 1558.32 214.632 1557.87 214.845L1556.48 215.497C1556.04 215.707 1555.48 215.456 1555.23 214.937C1554.99 214.419 1555.15 213.809 1555.58 213.607C1556.28 213.279 1556.7 212.558 1556.65 211.79C1556.6 211.02 1556.09 210.358 1555.36 210.12C1549.97 208.377 1545.22 202.064 1545.11 198.118C1545.03 195.417 1545.44 192.899 1545.86 190.233C1545.87 190.173 1545.88 190.114 1545.89 190.053L1549.76 193.353C1550.65 194.397 1552.27 195.117 1553.99 194.307L1553.99 194.306C1555.27 193.662 1555.53 192.667 1555.57 192.133C1555.68 190.742 1554.63 189.788 1554.21 189.46L1546.79 183.161C1547 181.815 1547.28 180.053 1547.57 178.297C1547.78 176.98 1547.99 175.673 1548.18 174.536C1548.47 174.445 1548.77 174.36 1549.06 174.224C1549.31 174.108 1549.53 173.953 1549.75 173.808C1552.07 175.185 1554.11 176.363 1555.94 177.422C1561.6 180.689 1565.34 182.846 1569.62 186.589C1572.65 189.25 1574.61 196.896 1572.57 202.023C1572.29 202.74 1572.47 203.559 1573.03 204.087C1573.59 204.614 1574.42 204.746 1575.12 204.416C1575.55 204.211 1576.13 204.477 1576.37 204.995C1576.62 205.513 1576.45 206.105 1576.01 206.314L1574.52 207.012C1574.07 207.226 1573.72 207.613 1573.55 208.087C1573.38 208.562 1573.41 209.08 1573.63 209.532L1580.59 223.904C1580.62 223.98 1580.65 224.052 1580.69 224.12C1585.45 233.235 1592.87 242.952 1599.73 249.206L1574.55 261.049C1574.13 250.563 1570.57 238.613 1567.14 230.424ZM1617.77 268.828C1618.73 269.143 1619.59 269.578 1619.92 269.907C1620.18 270.168 1620.53 270.648 1620.88 271.176L1576.94 291.845C1576.73 291.238 1576.57 290.653 1576.55 290.274C1576.52 289.741 1576.76 288.829 1577.16 287.955C1577.56 287.097 1577.25 286.081 1576.45 285.58C1574.45 284.326 1570.05 280.618 1572.39 273.281C1572.56 272.757 1572.49 272.186 1572.2 271.721C1571.91 271.253 1571.43 270.938 1570.88 270.854C1570.6 270.809 1569.75 270.54 1569.59 269.859C1569.21 268.397 1570.17 267.754 1570.14 267.768L1607.16 250.353C1607.18 250.347 1608.4 249.905 1609.28 251.123C1609.61 251.584 1609.38 252.379 1609.15 252.804C1608.88 253.281 1608.83 253.855 1609.02 254.368C1609.21 254.882 1609.62 255.291 1610.13 255.483C1617.2 258.126 1617.17 263.616 1616.52 266.653C1616.32 267.59 1616.86 268.529 1617.77 268.828ZM1568.53 197.844C1569.32 195.986 1569.37 194.254 1568.67 192.547C1566.88 188.184 1560.85 185.663 1560.78 185.638C1560.14 185.374 1559.84 184.645 1560.1 184.005C1560.36 183.365 1561.09 183.058 1561.73 183.319C1562.02 183.439 1568.78 186.251 1570.98 191.589C1571.94 193.916 1571.89 196.352 1570.83 198.825C1570.71 199.12 1570.48 199.34 1570.21 199.466C1569.9 199.613 1569.53 199.632 1569.19 199.486C1568.55 199.215 1568.26 198.479 1568.53 197.844Z" fill="#F7CC57"/>
</g>
<g opacity="0.16" clip-path="url(#clip2_73_399)">
<path d="M722.87 110.087C718.286 107.902 712.876 109.114 709.637 112.829L657.462 92.4459L657.624 92.1442C659.048 89.4916 658.048 86.1763 655.397 84.7534C653.402 83.6826 651.031 83.9849 649.374 85.3284C648.896 84.6237 648.266 84.0084 647.465 83.5784C646.072 82.8308 644.501 82.7672 643.111 83.245C641.189 78.0863 637.526 73.8591 632.614 71.2226C621.601 65.3073 607.831 69.4601 601.92 80.4751C596.008 91.4901 600.159 105.26 611.175 111.172C616.087 113.808 621.636 114.524 626.997 113.273C627.366 114.695 628.288 115.971 629.681 116.719C630.483 117.149 631.342 117.332 632.195 117.342C631.991 119.466 633.05 121.608 635.045 122.679C637.696 124.102 641.011 123.102 642.435 120.45L642.597 120.148L688.424 152.361C687.119 157.111 689.098 162.288 693.452 164.902C692.504 167.685 693.662 170.83 696.335 172.265L702.252 175.44C703.074 175.881 704.096 175.572 704.537 174.751L737.205 113.879C737.646 113.058 737.339 112.035 736.517 111.594L730.6 108.419C727.927 106.984 724.666 107.758 722.87 110.087ZM612.771 108.199C603.396 103.168 599.862 91.4461 604.894 82.0714C609.925 72.6964 621.647 69.1625 631.021 74.1937C635.528 76.6125 638.794 80.6081 640.302 85.4715C640.229 85.5857 640.141 85.6844 640.077 85.8046L627.453 109.327C627.388 109.448 627.354 109.575 627.3 109.697C622.414 111.129 617.277 110.617 612.771 108.199ZM645.87 86.5502C646.884 87.0944 647.265 88.3593 646.721 89.3719L634.098 112.893C633.556 113.905 632.29 114.288 631.276 113.744C630.263 113.2 629.883 111.936 630.427 110.923L643.05 87.4017C643.593 86.3894 644.859 86.0076 645.87 86.5502ZM639.46 118.853C638.918 119.864 637.653 120.246 636.641 119.703C635.627 119.159 635.246 117.894 635.79 116.881L637.074 114.489L649.697 90.9677L650.981 88.5753C651.525 87.5626 652.79 87.181 653.803 87.7245C654.816 88.268 655.196 89.5328 654.652 90.5455L639.46 118.853ZM644.204 117.151L655.857 95.4379L707.76 115.715L689.791 149.195L644.204 117.151ZM692.321 151.623L711.18 116.481C713.115 112.877 717.481 111.442 721.17 113.044L694.978 161.848C691.606 159.66 690.386 155.227 692.321 151.623ZM733.435 113.768L702.361 171.668L697.932 169.291C696.596 168.574 696.093 166.904 696.809 165.569L725.283 112.514C726.001 111.179 727.67 110.675 729.006 111.391L733.435 113.768Z" fill="#F7CC57"/>
</g>
<g opacity="0.16" clip-path="url(#clip3_73_399)">
<path d="M588.44 812.331C586.997 812.137 585.669 813.15 585.475 814.593C585.281 816.035 586.294 817.363 587.736 817.558C589.179 817.752 590.507 816.739 590.701 815.296C590.895 813.854 589.882 812.526 588.44 812.331Z" fill="#F7CC57"/>
<path d="M619.797 816.554L598.892 813.739C597.449 813.544 596.122 814.557 595.927 816C595.733 817.443 596.745 818.771 598.189 818.965L619.094 821.78C620.537 821.974 621.864 820.962 622.059 819.519C622.253 818.075 621.24 816.748 619.797 816.554Z" fill="#F7CC57"/>
<path d="M640.347 831.741C640.565 831.493 640.771 831.232 640.961 830.953C642.657 828.46 642.797 825.276 641.326 822.645L634.557 810.535C636.029 809.272 636.975 807.536 637.236 805.599C637.818 801.277 634.774 797.286 630.452 796.704L630.217 796.673L632.271 745.062L642.859 743.049C646.21 742.413 648.768 739.714 649.223 736.332L651.53 719.195C651.725 717.752 650.712 716.424 649.269 716.23L638.817 714.822C637.374 714.628 636.046 715.641 635.852 717.084L634.796 724.923L629.57 724.219L630.625 716.38C630.82 714.937 629.807 713.609 628.364 713.415L607.459 710.6C606.016 710.406 604.688 711.418 604.494 712.861L603.438 720.701L598.212 719.997L599.268 712.158C599.462 710.714 598.45 709.387 597.006 709.193L586.554 707.785C585.111 707.591 583.783 708.603 583.589 710.047L581.281 727.184C580.826 730.565 582.579 733.845 585.641 735.344L595.32 740.087L583.65 790.402L583.415 790.371C581.322 790.089 579.244 790.639 577.563 791.921C575.883 793.203 574.802 795.061 574.52 797.155C574.252 799.148 574.756 801.07 575.8 802.621L566.068 812.511C563.953 814.66 563.245 817.767 564.221 820.62C564.33 820.939 564.461 821.245 564.606 821.542C560.389 823.275 557.179 827.146 556.529 831.979L555.825 837.205C555.63 838.649 556.643 839.976 558.086 840.17L641.706 851.43C643.149 851.624 644.477 850.612 644.671 849.169L645.375 843.942C646.026 839.109 643.955 834.527 640.347 831.741ZM587.961 730.608C586.94 730.108 586.356 729.015 586.508 727.887L588.463 713.363L593.69 714.067L592.634 721.907C592.44 723.35 593.452 724.677 594.895 724.872L605.348 726.279C606.791 726.473 608.118 725.461 608.313 724.018L609.368 716.178L625.047 718.289L623.992 726.129C623.797 727.572 624.81 728.9 626.253 729.094L636.705 730.501C638.148 730.696 639.476 729.683 639.67 728.24L640.726 720.401L645.952 721.104L643.997 735.628C643.845 736.756 642.992 737.656 641.875 737.868L629.648 740.193L599.138 736.085L587.961 730.608ZM624.967 795.966L588.9 791.109L600.389 741.574L626.99 745.156L624.967 795.966ZM580.761 796.114C581.322 795.687 582.014 795.503 582.712 795.597L585.325 795.949L627.135 801.579L629.748 801.93C631.189 802.124 632.203 803.455 632.009 804.895C631.915 805.593 631.555 806.212 630.995 806.639C630.434 807.067 629.741 807.251 629.044 807.157L582.008 800.823C580.567 800.629 579.553 799.299 579.747 797.858C579.84 797.161 580.201 796.542 580.761 796.114ZM569.826 816.21L579.998 805.874L581.304 806.05L628.341 812.383L629.647 812.559L636.722 825.218C637.22 826.108 637.175 827.143 636.601 827.987C636.027 828.831 635.08 829.254 634.069 829.117L571.354 820.673C570.342 820.537 569.541 819.879 569.211 818.913C568.88 817.947 569.11 816.937 569.826 816.21ZM639.797 845.852L561.403 835.296L561.755 832.683C562.337 828.36 566.327 825.317 570.65 825.899L633.365 834.344C637.688 834.926 640.731 838.916 640.149 843.239L639.797 845.852Z" fill="#F7CC57"/>
</g>
<g opacity="0.16" clip-path="url(#clip4_73_399)">
<path d="M418.704 532.855C415.447 536.257 415.564 541.673 418.964 544.929C420.766 546.655 423.132 547.405 425.444 547.248L421.973 592.525L385.384 579.672C387.193 576.368 386.681 572.139 383.833 569.413C380.433 566.156 375.016 566.275 371.759 569.675C368.503 573.075 368.618 578.493 372.018 581.749C374.866 584.476 379.111 584.804 382.335 582.856L396.755 618.857L351.673 624.28C351.729 621.962 350.878 619.63 349.077 617.906C345.675 614.648 340.258 614.766 337.001 618.167C333.745 621.567 333.86 626.985 337.261 630.241C340.661 633.497 346.077 633.38 349.335 629.979C349.863 629.427 350.27 628.81 350.62 628.17C350.676 628.203 350.719 628.252 350.781 628.282L409 656.211L406.692 658.621C405.949 659.396 405.978 660.626 406.751 661.368L412.845 667.204C413.621 667.946 414.849 667.92 415.592 667.144L471.033 609.254C471.776 608.479 471.748 607.248 470.974 606.507L464.88 600.671C464.105 599.929 462.876 599.955 462.134 600.731L459.825 603.141L429.409 546.182C429.378 546.123 429.326 546.082 429.289 546.027C429.914 545.649 430.513 545.215 431.041 544.664C434.297 541.264 434.182 535.846 430.782 532.59C427.381 529.333 421.961 529.455 418.704 532.855ZM340.321 627.045C338.682 625.475 338.624 622.864 340.194 621.225C341.766 619.587 344.375 619.531 346.014 621.1C347.655 622.672 347.712 625.281 346.142 626.921C344.572 628.56 341.962 628.616 340.321 627.045ZM466.884 607.973L414.13 663.057L410.844 659.91L463.598 604.826L466.884 607.973ZM375.079 578.553C373.44 576.983 373.382 574.372 374.952 572.733C376.524 571.095 379.133 571.039 380.772 572.609C382.412 574.179 382.47 576.79 380.9 578.429C379.33 580.068 376.719 580.123 375.079 578.553ZM456.691 606.191L411.908 652.952L359.094 627.616L399.971 622.699C400.621 622.621 401.198 622.245 401.526 621.685C401.86 621.123 401.912 620.44 401.669 619.834L387.69 584.932L423.163 597.391C423.779 597.607 424.46 597.525 425.007 597.168C425.553 596.817 425.902 596.223 425.952 595.57L429.1 554.52L456.691 606.191ZM427.845 541.609C426.275 543.248 423.666 543.305 422.025 541.733C420.386 540.163 420.328 537.552 421.898 535.913C423.469 534.275 426.079 534.219 427.718 535.789C429.358 537.36 429.415 539.97 427.845 541.609Z" fill="#F7CC57"/>
</g>
<g opacity="0.16" clip-path="url(#clip5_73_399)">
<path d="M104.691 124.973L105.805 125.587C105.77 124.023 106.093 122.433 106.902 120.966C108.133 118.736 110.162 117.227 112.439 116.586C112.55 116.282 112.712 115.992 112.945 115.755C115.852 112.799 124.938 88.9636 128.039 77.2006C134.651 52.1131 150.098 35.2874 170.413 31.0366C177.601 29.5332 182.56 29.795 182.767 29.8075C184.022 29.8779 184.975 30.9397 184.924 32.1839L184.382 45.4979L197.733 38.9254C198.628 38.4835 199.714 38.6751 200.399 39.3983C201.09 40.1217 201.229 41.2098 200.747 42.0833L190.218 61.1651L196.241 90.5384C196.373 91.1839 196.221 91.8526 195.825 92.3762C192.124 97.285 188.46 99.4006 184.942 98.6638C180.361 97.7118 177.953 92.1862 176.976 89.235C170.987 88.5382 166.943 80.9472 164.904 75.8913C159.337 86.6673 167.89 100.52 167.986 100.673C168.073 100.81 168.145 100.954 168.2 101.105C175.187 120.107 156.674 139.971 155.881 140.806C155.863 140.825 155.837 140.834 155.819 140.852C156.361 143.023 156.145 145.389 154.983 147.497C154.173 148.963 153 150.085 151.658 150.889L152.772 151.503C156.085 153.332 157.294 157.516 155.465 160.83C153.637 164.143 149.453 165.352 146.139 163.524L98.0588 136.993C94.7453 135.164 93.5367 130.98 95.3651 127.666C97.1935 124.353 101.376 123.143 104.691 124.973ZM163.978 102.896C162.565 100.561 152.175 82.3548 163.892 69.3983C164.449 68.7829 165.295 68.5182 166.102 68.7046C166.913 68.8931 167.558 69.5 167.785 70.2999C169.23 75.2783 173.706 85.3427 178.366 84.6757C179.535 84.5082 180.644 85.2588 180.918 86.4108C181.444 88.6299 183.417 93.6697 185.878 94.1865C187.328 94.4901 189.324 93.161 191.543 90.4235L185.562 61.2618C185.455 60.727 185.538 60.1742 185.801 59.6974L193.224 46.245L182.954 51.3029C182.23 51.6617 181.374 51.6126 180.695 51.1672C180.015 50.7269 179.623 49.9644 179.656 49.1567L180.255 34.3846C178.286 34.4614 175.152 34.7182 171.35 35.5132C164.981 36.8461 159.143 39.5913 153.953 43.5272L157.278 55.0339C157.629 56.2494 156.931 57.5156 155.715 57.8666C155.109 58.0417 154.488 57.9551 153.975 57.6721C153.462 57.3891 153.057 56.9097 152.882 56.3035L150.119 46.7429C147.945 48.7838 145.924 51.0735 144.044 53.5749C144.302 53.8373 144.521 54.1412 144.631 54.5204L150.184 73.7483C150.535 74.9638 149.837 76.2299 148.621 76.581C148.015 76.7561 147.394 76.6694 146.881 76.3864C146.368 76.1034 145.964 75.6241 145.788 75.0179L140.92 58.1621C139.465 60.5291 138.122 63.0472 136.915 65.7233C137.315 66.012 137.648 66.4024 137.794 66.9142L143.348 86.142C143.699 87.3576 143 88.6237 141.785 88.9748C141.179 89.1499 140.557 89.0632 140.045 88.7802C139.532 88.4972 139.127 88.0179 138.952 87.4117L134.472 71.8988C133.738 73.99 133.052 76.1333 132.464 78.3696C132.185 79.4285 131.819 80.6978 131.388 82.1243C131.691 82.3988 131.948 82.7288 132.071 83.1495L136.515 98.5298C136.866 99.7454 136.167 101.011 134.952 101.363C134.346 101.538 133.724 101.451 133.212 101.168C132.699 100.885 132.294 100.406 132.119 99.7994L129.081 89.2793C125.789 99.0089 121.159 111.081 117.909 116.586L119.338 117.375L151.391 135.062L153.711 136.342C157.477 131.847 168.876 116.674 163.978 102.896ZM150.976 145.286C152.195 143.076 151.39 140.288 149.18 139.068L117.127 121.381C114.917 120.162 112.128 120.967 110.909 123.177C109.69 125.387 110.495 128.175 112.705 129.395L144.758 147.082C146.966 148.3 149.758 147.494 150.976 145.286ZM100.27 132.986L148.35 159.517C149.456 160.127 150.848 159.725 151.459 158.619C152.069 157.513 151.667 156.12 150.561 155.51L142.547 151.088L110.494 133.401L102.481 128.979C101.375 128.369 99.982 128.772 99.3718 129.877C98.7616 130.983 99.1638 132.376 100.27 132.986Z" fill="#F7CC57"/>
</g>
<defs>
<clipPath id="clip0_73_399">
<rect width="135" height="135" fill="white" transform="translate(119.287 597) rotate(62.081)"/>
</clipPath>
<clipPath id="clip1_73_399">
<rect width="135" height="135" fill="white" transform="translate(1482 191.468) rotate(-25.1941)"/>
</clipPath>
<clipPath id="clip2_73_399">
<rect width="135" height="135" fill="white" transform="translate(570 139.952) rotate(-61.7785)"/>
</clipPath>
<clipPath id="clip3_73_399">
<rect width="135" height="135" fill="white" transform="translate(551.015 703) rotate(7.66876)"/>
</clipPath>
<clipPath id="clip4_73_399">
<rect width="135" height="135" fill="white" transform="translate(325 618.499) rotate(-46.2377)"/>
</clipPath>
<clipPath id="clip5_73_399">
<rect width="135" height="135" fill="white" transform="matrix(-0.875549 -0.483129 -0.483129 0.875549 247.422 65.2224)"/>
</clipPath>
</defs>
</svg>
