<svg width="1593" height="820" viewBox="0 0 1593 820" fill="none" xmlns="http://www.w3.org/2000/svg">
<g opacity="0.16" clip-path="url(#clip0_73_399)">
<path d="M150.085 669.846L146.229 662.57L153.398 658.771C154.691 658.086 155.168 656.826 154.483 655.533L148.286 643.838C147.601 642.545 146.015 641.714 144.722 642.399L137.553 646.197L133.973 639.44C133.287 638.147 131.702 637.315 130.409 638L118.714 644.197C117.421 644.883 116.915 646.823 117.6 648.116L121.181 654.873L114.316 658.511C113.023 659.196 112.517 661.136 113.202 662.429L119.399 674.124C120.084 675.417 121.699 675.569 122.992 674.884L129.857 671.246L133.712 678.522C134.397 679.815 136.012 679.967 137.305 679.282L149 673.085C150.293 672.4 150.77 671.139 150.085 669.846ZM137.013 673.445L133.432 666.687C132.747 665.394 131.161 664.563 129.869 665.248L122.7 669.047L118.981 662.03L126.15 658.231C127.443 657.546 127.92 656.285 127.235 654.992L123.38 647.716L130.397 643.998L134.252 651.274C134.937 652.567 136.552 652.719 137.845 652.034L144.71 648.396L148.428 655.413L141.563 659.051C140.271 659.736 139.764 661.676 140.449 662.969L144.03 669.727L137.013 673.445Z" fill="#F7CC57"/>
<path d="M67.9802 735.109C78.7235 738.143 101.566 743.325 114.025 736.381C118.432 733.926 121.166 730.127 122.258 725.28C124.666 714.575 120.897 706.7 111.338 702.029L119.973 697.453C121.265 696.768 121.743 695.508 121.058 694.215L98.7481 652.114C98.063 650.821 96.4771 649.989 95.1843 650.674L86.2967 655.384C87.2257 651.147 86.8717 647.045 85.3794 643.593C83.3915 638.936 79.3722 635.465 73.4263 633.127C68.8016 631.306 64.1907 631.565 59.6846 633.833C46.9179 640.256 38.2752 661.964 34.7663 672.534C32.4829 669.412 28.1242 668.235 24.6003 670.102L19.9132 672.586C16.0461 674.635 14.5493 679.78 16.5936 683.638L48.8402 744.492C50.8845 748.35 55.7074 749.482 59.5744 747.433L64.2616 744.949C67.8836 743.03 69.4815 738.822 67.9802 735.109ZM62.2039 638.528C65.3512 636.948 68.3168 636.857 71.5232 638.116C76.1082 639.922 79.1784 642.52 80.5899 645.824C82.612 650.501 81.2003 656.085 79.6586 659.944C79.2481 660.975 79.4503 662.03 80.2817 662.766C81.1075 663.507 82.2404 663.525 83.2203 663.005L95.1721 656.672L115.003 694.096L103.428 700.229C102.453 700.746 101.97 701.94 102.11 703.036C102.25 704.123 103.087 705.085 104.164 705.339C115.018 707.896 119.405 714.275 117.163 724.245C116.404 727.605 114.672 730.024 111.597 731.741C98.7266 738.915 70.6246 730.482 65.148 728.627L63.1679 724.89C63.0057 724.584 62.2672 724.604 62.1256 724.337L40.7662 684.028C40.6149 683.743 41.0339 683.12 40.8584 682.789L38.7063 678.727C40.2469 673.155 49.0402 645.149 62.2039 638.528ZM53.518 742.013L21.2715 681.159C20.5937 679.88 21.1035 677.946 22.3919 677.264L27.0791 674.78C28.3673 674.097 29.9498 674.922 30.6276 676.201L35.5961 685.578L57.9056 727.679L62.8742 737.055C63.552 738.335 63.0711 739.588 61.7827 740.271L57.0956 742.755C55.8074 743.437 54.1958 743.292 53.518 742.013Z" fill="#F7CC57"/>
</g>
<g opacity="0.16" clip-path="url(#clip1_73_399)">
<path d="M1551.45 283.849C1551.79 280.449 1551.31 274.177 1544.12 270.679C1544.33 269.459 1544.18 268.091 1543.31 266.913C1541.3 264.119 1538.13 264.219 1536.6 264.938L1534.81 265.78C1527.93 260.017 1520.14 250.069 1515.18 240.692C1515.16 240.605 1515.12 240.521 1515.08 240.437C1515.04 240.336 1514.98 240.238 1514.92 240.152L1508.84 227.599C1510.99 226.433 1511.86 223.707 1510.77 221.395C1510.17 220.105 1509.07 219.198 1507.83 218.805C1509.14 212.39 1506.71 204.938 1503.1 201.763C1498.54 197.776 1494.67 195.545 1488.82 192.168C1487.29 191.285 1485.63 190.324 1483.77 189.231C1484.35 187.549 1484.22 185.637 1483.36 183.815C1482.54 182.059 1481.17 180.86 1479.57 180.308C1477.99 179.721 1476.19 179.739 1474.56 180.51C1473.72 180.903 1473.01 181.455 1472.45 182.109C1471.49 183.105 1470.97 184.358 1470.89 185.736C1470.78 186.859 1470.94 188.023 1471.46 189.118C1471.61 189.438 1471.8 189.726 1471.99 190.009C1472.96 191.76 1474.14 192.707 1475.27 193.189C1475.14 193.99 1475 194.84 1474.86 195.69C1474.49 197.963 1474.12 200.242 1473.92 201.636C1473.84 202.133 1473.97 202.63 1474.26 203.026C1473.93 203.324 1473.72 203.736 1473.66 204.192C1473.52 205.341 1473.34 206.487 1473.16 207.637C1472.72 210.357 1472.27 213.168 1472.36 216.221C1472.5 221.429 1477.17 227.699 1482.71 230.63C1482.22 231.832 1482.23 233.245 1482.83 234.536C1483.91 236.816 1486.5 237.886 1488.75 237.036L1494.7 249.933C1498.21 258.319 1501.88 270.864 1501.83 281.293L1499.55 282.37C1498.31 282.952 1496.04 285.291 1496.94 288.773C1497.29 290.197 1498.24 291.23 1499.34 291.865C1497.68 299.371 1501.65 303.853 1504.18 305.86C1503.94 306.654 1503.75 307.589 1503.8 308.495C1503.91 310.262 1505.02 312.713 1505.24 313.187C1505.45 313.636 1505.84 313.985 1506.31 314.156C1506.78 314.325 1507.29 314.301 1507.74 314.089L1555.35 291.694C1555.82 291.474 1556.17 291.07 1556.33 290.585C1556.5 290.094 1556.45 289.558 1556.2 289.106C1556.05 288.832 1554.73 286.398 1553.57 285.242C1552.99 284.664 1552.21 284.202 1551.45 283.849ZM1498.14 248.424L1491.38 233.759C1491.17 233.306 1490.78 232.953 1490.31 232.782C1489.84 232.609 1489.32 232.632 1488.87 232.845L1487.48 233.497C1487.04 233.707 1486.48 233.456 1486.23 232.937C1485.99 232.419 1486.15 231.809 1486.58 231.607C1487.28 231.279 1487.7 230.558 1487.65 229.79C1487.6 229.02 1487.09 228.358 1486.36 228.12C1480.97 226.377 1476.22 220.064 1476.11 216.118C1476.03 213.417 1476.44 210.899 1476.86 208.233C1476.87 208.173 1476.88 208.114 1476.89 208.053L1480.76 211.353C1481.65 212.397 1483.27 213.117 1484.99 212.307L1484.99 212.306C1486.27 211.662 1486.53 210.667 1486.57 210.133C1486.68 208.742 1485.63 207.788 1485.21 207.46L1477.79 201.161C1478 199.815 1478.28 198.053 1478.57 196.297C1478.78 194.98 1478.99 193.673 1479.18 192.536C1479.47 192.445 1479.77 192.36 1480.06 192.224C1480.31 192.108 1480.53 191.953 1480.75 191.808C1483.07 193.185 1485.11 194.363 1486.94 195.422C1492.6 198.689 1496.34 200.846 1500.62 204.589C1503.65 207.25 1505.61 214.896 1503.57 220.023C1503.29 220.74 1503.47 221.559 1504.03 222.087C1504.59 222.614 1505.42 222.746 1506.12 222.416C1506.55 222.211 1507.13 222.477 1507.37 222.995C1507.62 223.513 1507.45 224.105 1507.01 224.314L1505.52 225.012C1505.07 225.226 1504.72 225.613 1504.55 226.087C1504.38 226.562 1504.41 227.08 1504.63 227.532L1511.59 241.904C1511.62 241.98 1511.65 242.052 1511.69 242.12C1516.45 251.235 1523.87 260.952 1530.73 267.206L1505.55 279.049C1505.13 268.563 1501.57 256.613 1498.14 248.424ZM1548.77 286.828C1549.73 287.143 1550.59 287.578 1550.92 287.907C1551.18 288.168 1551.53 288.648 1551.88 289.176L1507.94 309.845C1507.73 309.238 1507.57 308.653 1507.55 308.274C1507.52 307.741 1507.76 306.829 1508.16 305.955C1508.56 305.097 1508.25 304.081 1507.45 303.58C1505.45 302.326 1501.05 298.618 1503.39 291.281C1503.56 290.757 1503.49 290.186 1503.2 289.721C1502.91 289.253 1502.43 288.938 1501.88 288.854C1501.6 288.809 1500.75 288.54 1500.59 287.859C1500.21 286.397 1501.17 285.754 1501.14 285.768L1538.16 268.353C1538.18 268.347 1539.4 267.905 1540.28 269.123C1540.61 269.584 1540.38 270.379 1540.15 270.804C1539.88 271.281 1539.83 271.855 1540.02 272.368C1540.21 272.882 1540.62 273.291 1541.13 273.483C1548.2 276.126 1548.17 281.616 1547.52 284.653C1547.32 285.59 1547.86 286.529 1548.77 286.828ZM1499.53 215.844C1500.32 213.986 1500.37 212.254 1499.67 210.547C1497.88 206.184 1491.85 203.663 1491.78 203.638C1491.14 203.374 1490.84 202.645 1491.1 202.005C1491.36 201.365 1492.09 201.058 1492.73 201.319C1493.02 201.439 1499.78 204.251 1501.98 209.589C1502.94 211.916 1502.89 214.352 1501.83 216.825C1501.71 217.12 1501.48 217.34 1501.21 217.466C1500.9 217.613 1500.53 217.632 1500.19 217.486C1499.55 217.215 1499.26 216.479 1499.53 215.844Z" fill="#F7CC57"/>
</g>
<g opacity="0.16" clip-path="url(#clip2_73_399)">
<path d="M631.87 107.087C627.286 104.902 621.876 106.114 618.637 109.829L566.462 89.4459L566.624 89.1442C568.048 86.4916 567.048 83.1763 564.397 81.7534C562.402 80.6826 560.031 80.9849 558.374 82.3284C557.896 81.6237 557.266 81.0084 556.465 80.5784C555.072 79.8308 553.501 79.7672 552.111 80.245C550.189 75.0863 546.526 70.8591 541.614 68.2226C530.601 62.3073 516.831 66.4601 510.92 77.4751C505.008 88.4901 509.159 102.26 520.175 108.172C525.087 110.808 530.636 111.524 535.997 110.273C536.366 111.695 537.288 112.971 538.681 113.719C539.483 114.149 540.342 114.332 541.195 114.342C540.991 116.466 542.05 118.608 544.045 119.679C546.696 121.102 550.011 120.102 551.435 117.45L551.597 117.148L597.424 149.361C596.119 154.111 598.098 159.288 602.452 161.902C601.504 164.685 602.662 167.83 605.335 169.265L611.252 172.44C612.074 172.881 613.096 172.572 613.537 171.751L646.205 110.879C646.646 110.058 646.339 109.035 645.517 108.594L639.6 105.419C636.927 103.984 633.666 104.758 631.87 107.087ZM521.771 105.199C512.396 100.168 508.862 88.4461 513.894 79.0714C518.925 69.6964 530.647 66.1625 540.021 71.1937C544.528 73.6125 547.794 77.6081 549.302 82.4715C549.229 82.5857 549.141 82.6844 549.077 82.8046L536.453 106.327C536.388 106.448 536.354 106.575 536.3 106.697C531.414 108.129 526.277 107.617 521.771 105.199ZM554.87 83.5502C555.884 84.0944 556.265 85.3593 555.721 86.3719L543.098 109.893C542.556 110.905 541.29 111.288 540.276 110.744C539.263 110.2 538.883 108.936 539.427 107.923L552.05 84.4017C552.593 83.3894 553.859 83.0076 554.87 83.5502ZM548.46 115.853C547.918 116.864 546.653 117.246 545.641 116.703C544.627 116.159 544.246 114.894 544.79 113.881L546.074 111.489L558.697 87.9677L559.981 85.5753C560.525 84.5626 561.79 84.181 562.803 84.7245C563.816 85.268 564.196 86.5328 563.652 87.5455L548.46 115.853ZM553.204 114.151L564.857 92.4379L616.76 112.715L598.791 146.195L553.204 114.151ZM601.321 148.623L620.18 113.481C622.115 109.877 626.481 108.442 630.17 110.044L603.978 158.848C600.606 156.66 599.386 152.227 601.321 148.623ZM642.435 110.768L611.361 168.668L606.932 166.291C605.596 165.574 605.093 163.904 605.809 162.569L634.283 109.514C635.001 108.179 636.67 107.675 638.006 108.391L642.435 110.768Z" fill="#F7CC57"/>
</g>
<g opacity="0.16" clip-path="url(#clip3_73_399)">
<path d="M537.44 777.331C535.997 777.137 534.669 778.15 534.475 779.593C534.281 781.035 535.294 782.363 536.736 782.558C538.179 782.752 539.507 781.739 539.701 780.296C539.895 778.854 538.882 777.526 537.44 777.331Z" fill="#F7CC57"/>
<path d="M568.797 781.554L547.892 778.739C546.449 778.544 545.122 779.557 544.927 781C544.733 782.443 545.745 783.771 547.189 783.965L568.094 786.78C569.537 786.974 570.864 785.962 571.059 784.519C571.253 783.075 570.24 781.748 568.797 781.554Z" fill="#F7CC57"/>
<path d="M589.347 796.741C589.565 796.493 589.771 796.232 589.961 795.953C591.657 793.46 591.797 790.276 590.326 787.645L583.557 775.535C585.029 774.272 585.975 772.536 586.236 770.599C586.818 766.277 583.774 762.286 579.452 761.704L579.217 761.673L581.271 710.062L591.859 708.049C595.21 707.413 597.768 704.714 598.223 701.332L600.53 684.195C600.725 682.752 599.712 681.424 598.269 681.23L587.817 679.822C586.374 679.628 585.046 680.641 584.852 682.084L583.796 689.923L578.57 689.219L579.625 681.38C579.82 679.937 578.807 678.609 577.364 678.415L556.459 675.6C555.016 675.406 553.688 676.418 553.494 677.861L552.438 685.701L547.212 684.997L548.268 677.158C548.462 675.714 547.45 674.387 546.006 674.193L535.554 672.785C534.111 672.591 532.783 673.603 532.589 675.047L530.281 692.184C529.826 695.565 531.579 698.845 534.641 700.344L544.32 705.087L532.65 755.402L532.415 755.371C530.322 755.089 528.244 755.639 526.563 756.921C524.883 758.203 523.802 760.061 523.52 762.155C523.252 764.148 523.756 766.07 524.8 767.621L515.068 777.511C512.953 779.66 512.245 782.767 513.221 785.62C513.33 785.939 513.461 786.245 513.606 786.542C509.389 788.275 506.179 792.146 505.529 796.979L504.825 802.205C504.63 803.649 505.643 804.976 507.086 805.17L590.706 816.43C592.149 816.624 593.477 815.612 593.671 814.169L594.375 808.942C595.026 804.109 592.955 799.527 589.347 796.741ZM536.961 695.608C535.94 695.108 535.356 694.015 535.508 692.887L537.463 678.363L542.69 679.067L541.634 686.907C541.44 688.35 542.452 689.677 543.895 689.872L554.348 691.279C555.791 691.473 557.118 690.461 557.313 689.018L558.368 681.178L574.047 683.289L572.992 691.129C572.797 692.572 573.81 693.9 575.253 694.094L585.705 695.501C587.148 695.696 588.476 694.683 588.67 693.24L589.726 685.401L594.952 686.104L592.997 700.628C592.845 701.756 591.992 702.656 590.875 702.868L578.648 705.193L548.138 701.085L536.961 695.608ZM573.967 760.966L537.9 756.109L549.389 706.574L575.99 710.156L573.967 760.966ZM529.761 761.114C530.322 760.687 531.014 760.503 531.712 760.597L534.325 760.949L576.135 766.579L578.748 766.93C580.189 767.124 581.203 768.455 581.009 769.895C580.915 770.593 580.555 771.212 579.995 771.639C579.434 772.067 578.741 772.251 578.044 772.157L531.008 765.823C529.567 765.629 528.553 764.299 528.747 762.858C528.84 762.161 529.201 761.542 529.761 761.114ZM518.826 781.21L528.998 770.874L530.304 771.05L577.341 777.383L578.647 777.559L585.722 790.218C586.22 791.108 586.175 792.143 585.601 792.987C585.027 793.831 584.08 794.254 583.069 794.117L520.354 785.673C519.342 785.537 518.541 784.879 518.211 783.913C517.88 782.947 518.11 781.937 518.826 781.21ZM588.797 810.852L510.403 800.296L510.755 797.683C511.337 793.36 515.327 790.317 519.65 790.899L582.365 799.344C586.688 799.926 589.731 803.916 589.149 808.239L588.797 810.852Z" fill="#F7CC57"/>
</g>
<g opacity="0.16" clip-path="url(#clip4_73_399)">
<path d="M1222.16 136.06C1218.21 133.495 1212.91 134.622 1210.35 138.57C1208.99 140.663 1208.69 143.127 1209.28 145.369L1164.15 150.416L1169.94 112.07C1173.53 113.23 1177.59 111.937 1179.73 108.63C1182.3 104.682 1181.17 99.3818 1177.22 96.8177C1173.27 94.2535 1167.97 95.3789 1165.41 99.3275C1163.26 102.634 1163.73 106.866 1166.25 109.669L1133.57 130.559L1119.83 87.2836C1122.11 86.9055 1124.24 85.6335 1125.6 83.5425C1128.17 79.592 1127.04 74.292 1123.09 71.7279C1119.14 69.1638 1113.84 70.2891 1111.28 74.2378C1108.71 78.1864 1109.84 83.4853 1113.79 86.0506C1114.43 86.4664 1115.11 86.7513 1115.81 86.9758C1115.79 87.0369 1115.74 87.0883 1115.73 87.1546L1099.16 149.565L1096.36 147.748C1095.46 147.163 1094.26 147.421 1093.68 148.319L1089.08 155.396C1088.5 156.296 1088.75 157.498 1089.65 158.083L1156.88 201.737C1157.78 202.322 1158.98 202.065 1159.57 201.166L1164.16 194.09C1164.75 193.189 1164.49 191.987 1163.59 191.402L1160.79 189.585L1211.07 149.065C1211.12 149.024 1211.15 148.965 1211.2 148.919C1211.69 149.462 1212.22 149.969 1212.86 150.385C1216.81 152.949 1222.11 151.824 1224.68 147.875C1227.24 143.927 1226.11 138.624 1222.16 136.06ZM1114.99 76.6479C1116.22 74.7444 1118.78 74.1998 1120.68 75.4359C1122.59 76.6738 1123.13 79.227 1121.89 81.1305C1120.65 83.0359 1118.1 83.5786 1116.2 82.3425C1114.29 81.1064 1113.75 78.5533 1114.99 76.6479ZM1157.36 197.421L1093.4 155.883L1095.87 152.067L1159.84 193.605L1157.36 197.421ZM1169.12 101.738C1170.36 99.8341 1172.91 99.2896 1174.81 100.526C1176.72 101.764 1177.26 104.317 1176.02 106.22C1174.79 108.124 1172.23 108.668 1170.33 107.432C1168.42 106.196 1167.88 103.641 1169.12 101.738ZM1157.21 187.075L1102.91 151.813L1117.93 95.1974L1130.4 134.436C1130.6 135.06 1131.07 135.557 1131.68 135.774C1132.3 135.997 1132.98 135.921 1133.53 135.57L1165.21 115.317L1159.59 152.494C1159.5 153.14 1159.7 153.792 1160.16 154.263C1160.6 154.734 1161.25 154.967 1161.9 154.894L1202.82 150.319L1157.21 187.075ZM1215.27 146.675C1213.36 145.439 1212.82 142.886 1214.06 140.98C1215.29 139.077 1217.85 138.532 1219.75 139.768C1221.66 141.006 1222.2 143.559 1220.96 145.463C1219.72 147.368 1217.17 147.911 1215.27 146.675Z" fill="#F7CC57"/>
</g>
<g opacity="0.16" clip-path="url(#clip5_73_399)">
<path d="M40.6915 124.973L41.8053 125.587C41.7695 124.023 42.0932 122.433 42.9024 120.966C44.1327 118.736 46.1623 117.227 48.4393 116.586C48.55 116.282 48.7123 115.992 48.9452 115.755C51.8519 112.799 60.9377 88.9636 64.039 77.2006C70.6512 52.1131 86.0979 35.2874 106.413 31.0366C113.601 29.5332 118.56 29.795 118.767 29.8075C120.022 29.8779 120.975 30.9397 120.924 32.1839L120.382 45.4979L133.733 38.9254C134.628 38.4835 135.714 38.6751 136.399 39.3983C137.09 40.1217 137.229 41.2098 136.747 42.0833L126.218 61.1651L132.241 90.5384C132.373 91.1839 132.221 91.8526 131.825 92.3762C128.124 97.285 124.46 99.4006 120.942 98.6638C116.361 97.7118 113.953 92.1862 112.976 89.235C106.987 88.5382 102.943 80.9472 100.904 75.8913C95.3366 86.6673 103.89 100.52 103.986 100.673C104.073 100.81 104.145 100.954 104.2 101.105C111.187 120.107 92.6737 139.971 91.881 140.806C91.8628 140.825 91.8368 140.834 91.8186 140.852C92.3614 143.023 92.1455 145.389 90.9826 147.497C90.1734 148.963 89.0003 150.085 87.6578 150.889L88.7717 151.503C92.0852 153.332 93.2938 157.516 91.4654 160.83C89.637 164.143 85.4525 165.352 82.139 163.524L34.0588 136.993C30.7453 135.164 29.5367 130.98 31.3651 127.666C33.1935 124.353 37.3759 123.143 40.6915 124.973ZM99.9785 102.896C98.5648 100.561 88.1749 82.3548 99.8924 69.3983C100.449 68.7829 101.295 68.5182 102.102 68.7046C102.913 68.8931 103.558 69.5 103.785 70.2999C105.23 75.2783 109.706 85.3427 114.366 84.6757C115.535 84.5082 116.644 85.2588 116.918 86.4108C117.444 88.6299 119.417 93.6697 121.878 94.1865C123.328 94.4901 125.324 93.161 127.543 90.4235L121.562 61.2618C121.455 60.727 121.538 60.1742 121.801 59.6974L129.224 46.245L118.954 51.3029C118.23 51.6617 117.374 51.6126 116.695 51.1672C116.015 50.7269 115.623 49.9644 115.656 49.1567L116.255 34.3846C114.286 34.4614 111.152 34.7182 107.35 35.5132C100.981 36.8461 95.1433 39.5913 89.953 43.5272L93.2781 55.0339C93.6292 56.2494 92.9306 57.5156 91.715 57.8666C91.1088 58.0417 90.4876 57.9551 89.9748 57.6721C89.4619 57.3891 89.0574 56.9097 88.8823 56.3035L86.1193 46.7429C83.9452 48.7838 81.9238 51.0735 80.0444 53.5749C80.3021 53.8373 80.5212 54.1412 80.6307 54.5204L86.1842 73.7483C86.5353 74.9638 85.8367 76.2299 84.6211 76.581C84.0149 76.7561 83.3937 76.6694 82.8809 76.3864C82.368 76.1034 81.9635 75.6241 81.7884 75.0179L76.92 58.1621C75.4649 60.5291 74.1225 63.0472 72.915 65.7233C73.3149 66.012 73.6483 66.4024 73.7945 66.9142L79.348 86.142C79.699 87.3576 79.0004 88.6237 77.7849 88.9748C77.1786 89.1499 76.5575 89.0632 76.0446 88.7802C75.5317 88.4972 75.1272 88.0179 74.9521 87.4117L70.4716 71.8988C69.7385 73.99 69.0523 76.1333 68.4638 78.3696C68.1853 79.4285 67.8194 80.6978 67.3876 82.1243C67.6909 82.3988 67.9479 82.7288 68.0711 83.1495L72.515 98.5298C72.8661 99.7454 72.1674 101.011 70.9519 101.363C70.3457 101.538 69.7245 101.451 69.2116 101.168C68.6988 100.885 68.2943 100.406 68.1192 99.7994L65.0807 89.2793C61.7895 99.0089 57.1589 111.081 53.9091 116.586L55.3375 117.375L87.391 135.062L89.7109 136.342C93.4767 131.847 104.876 116.674 99.9785 102.896ZM86.9759 145.286C88.1952 143.076 87.3898 140.288 85.1801 139.068L53.1266 121.381C50.9169 120.162 48.1284 120.967 46.909 123.177C45.6897 125.387 46.4952 128.175 48.7048 129.395L80.7583 147.082C82.966 148.3 85.7577 147.494 86.9759 145.286ZM36.2697 132.986L84.3499 159.517C85.4557 160.127 86.8485 159.725 87.4587 158.619C88.0689 157.513 87.6666 156.12 86.5608 155.51L78.5474 151.088L46.4939 133.401L38.4806 128.979C37.3747 128.369 35.982 128.772 35.3718 129.877C34.7616 130.983 35.1638 132.376 36.2697 132.986Z" fill="#F7CC57"/>
</g>
<defs>
<clipPath id="clip0_73_399">
<rect width="135" height="135" fill="white" transform="translate(120.287 591) rotate(62.081)"/>
</clipPath>
<clipPath id="clip1_73_399">
<rect width="135" height="135" fill="white" transform="translate(1413 209.468) rotate(-25.1941)"/>
</clipPath>
<clipPath id="clip2_73_399">
<rect width="135" height="135" fill="white" transform="translate(479 136.952) rotate(-61.7785)"/>
</clipPath>
<clipPath id="clip3_73_399">
<rect width="135" height="135" fill="white" transform="translate(500.015 668) rotate(7.66876)"/>
</clipPath>
<clipPath id="clip4_73_399">
<rect width="135" height="135" fill="white" transform="translate(1120.52 60) rotate(32.9982)"/>
</clipPath>
<clipPath id="clip5_73_399">
<rect width="135" height="135" fill="white" transform="matrix(-0.875549 -0.483129 -0.483129 0.875549 183.422 65.2224)"/>
</clipPath>
</defs>
</svg>
